<svg width="163" height="72" viewBox="0 0 163 72" fill="none" xmlns="http://www.w3.org/2000/svg">
<mask id="path-1-outside-1_728_123" maskUnits="userSpaceOnUse" x="45" y="26" width="15" height="23" fill="black">
<rect fill="white" x="45" y="26" width="15" height="23"/>
<path d="M47.34 45.29L47.4 40.28V34.28C47.4 31.42 47.26 29.09 46.98 27.29C49.12 27.11 51.46 27.02 54 27.02C56.56 27.02 58.02 27.17 58.38 27.47C58.56 27.63 58.65 27.92 58.65 28.34C58.65 28.76 58.57 29.17 58.41 29.57C57.27 29.15 55.41 28.94 52.83 28.94C51.77 28.94 50.67 28.97 49.53 29.03C49.61 29.91 49.65 32.03 49.65 35.39H52.02C53.7 35.39 54.9 35.35 55.62 35.27C55.7 35.43 55.74 35.72 55.74 36.14C55.74 36.54 55.63 36.82 55.41 36.98C55.21 37.14 54.86 37.23 54.36 37.25C53.88 37.27 53.19 37.28 52.29 37.28H49.65C49.65 41.64 49.72 44.26 49.86 45.14C50.74 45.18 51.45 45.2 51.99 45.2C55.35 45.2 57.5 44.97 58.44 44.51C58.6 44.91 58.68 45.32 58.68 45.74C58.68 46.16 58.59 46.45 58.41 46.61C58.05 46.91 56.51 47.06 53.79 47.06C51.07 47.06 49.41 47.04 48.81 47C48.23 46.98 47.84 46.84 47.64 46.58C47.44 46.32 47.34 45.89 47.34 45.29Z"/>
</mask>
<path d="M47.34 45.29L47.4 40.28V34.28C47.4 31.42 47.26 29.09 46.98 27.29C49.12 27.11 51.46 27.02 54 27.02C56.56 27.02 58.02 27.17 58.38 27.47C58.56 27.63 58.65 27.92 58.65 28.34C58.65 28.76 58.57 29.17 58.41 29.57C57.27 29.15 55.41 28.94 52.83 28.94C51.77 28.94 50.67 28.97 49.53 29.03C49.61 29.91 49.65 32.03 49.65 35.39H52.02C53.7 35.39 54.9 35.35 55.62 35.27C55.7 35.43 55.74 35.72 55.74 36.14C55.74 36.54 55.63 36.82 55.41 36.98C55.21 37.14 54.86 37.23 54.36 37.25C53.88 37.27 53.19 37.28 52.29 37.28H49.65C49.65 41.64 49.72 44.26 49.86 45.14C50.74 45.18 51.45 45.2 51.99 45.2C55.35 45.2 57.5 44.97 58.44 44.51C58.6 44.91 58.68 45.32 58.68 45.74C58.68 46.16 58.59 46.45 58.41 46.61C58.05 46.91 56.51 47.06 53.79 47.06C51.07 47.06 49.41 47.04 48.81 47C48.23 46.98 47.84 46.84 47.64 46.58C47.44 46.32 47.34 45.89 47.34 45.29Z" fill="black"/>
<path d="M47.34 45.29L46.34 45.278V45.29H47.34ZM47.4 40.28L48.4 40.292V40.28H47.4ZM46.98 27.29L46.8962 26.2935L45.827 26.3835L45.9919 27.4437L46.98 27.29ZM58.38 27.47L59.0444 26.7226L59.0324 26.712L59.0202 26.7018L58.38 27.47ZM58.41 29.57L58.0643 30.5083L58.9772 30.8447L59.3385 29.9414L58.41 29.57ZM49.53 29.03L49.4774 28.0314L48.4401 28.086L48.5341 29.1205L49.53 29.03ZM49.65 35.39H48.65V36.39H49.65V35.39ZM55.62 35.27L56.5144 34.8228L56.2026 34.1991L55.5096 34.2761L55.62 35.27ZM55.41 36.98L54.8218 36.1713L54.8032 36.1848L54.7853 36.1991L55.41 36.98ZM54.36 37.25L54.32 36.2508L54.3184 36.2509L54.36 37.25ZM49.65 37.28V36.28H48.65V37.28H49.65ZM49.86 45.14L48.8724 45.2971L49.0005 46.102L49.8146 46.139L49.86 45.14ZM58.44 44.51L59.3685 44.1386L58.9683 43.1382L58.0004 43.6118L58.44 44.51ZM58.41 46.61L59.0502 47.3782L59.0624 47.368L59.0744 47.3574L58.41 46.61ZM48.81 47L48.8765 46.0022L48.8605 46.0011L48.8445 46.0006L48.81 47ZM47.64 46.58L48.4326 45.9703L48.4326 45.9703L47.64 46.58ZM47.34 45.29L48.3399 45.302L48.3999 40.292L47.4 40.28L46.4001 40.268L46.3401 45.278L47.34 45.29ZM47.4 40.28H48.4V34.28H47.4H46.4V40.28H47.4ZM47.4 34.28H48.4C48.4 31.394 48.2592 29.0073 47.9681 27.1363L46.98 27.29L45.9919 27.4437C46.2608 29.1727 46.4 31.446 46.4 34.28H47.4ZM46.98 27.29L47.0638 28.2865C49.1715 28.1092 51.4831 28.02 54 28.02V27.02V26.02C51.4369 26.02 49.0685 26.1108 46.8962 26.2935L46.98 27.29ZM54 27.02V28.02C55.2669 28.02 56.2327 28.0574 56.9128 28.1273C57.2542 28.1623 57.4994 28.2033 57.6637 28.2439C57.8627 28.2931 57.8332 28.316 57.7398 28.2382L58.38 27.47L59.0202 26.7018C58.7468 26.474 58.3998 26.3657 58.1438 26.3024C57.8531 26.2305 57.5058 26.1777 57.1172 26.1377C56.3373 26.0576 55.2931 26.02 54 26.02V27.02ZM58.38 27.47L57.7156 28.2174C57.6382 28.1485 57.6225 28.088 57.6274 28.1039C57.6299 28.1119 57.6359 28.1343 57.6411 28.1751C57.6462 28.2158 57.65 28.27 57.65 28.34H58.65H59.65C59.65 27.8349 59.552 27.1739 59.0444 26.7226L58.38 27.47ZM58.65 28.34H57.65C57.65 28.6295 57.5955 28.9136 57.4815 29.1986L58.41 29.57L59.3385 29.9414C59.5445 29.4264 59.65 28.8905 59.65 28.34H58.65ZM58.41 29.57L58.7557 28.6317C57.4383 28.1463 55.4257 27.94 52.83 27.94V28.94V29.94C55.3943 29.94 57.1017 30.1537 58.0643 30.5083L58.41 29.57ZM52.83 28.94V27.94C51.7512 27.94 50.6336 27.9705 49.4774 28.0314L49.53 29.03L49.5826 30.0286C50.7064 29.9695 51.7888 29.94 52.83 29.94V28.94ZM49.53 29.03L48.5341 29.1205C48.6091 29.9455 48.65 32.0146 48.65 35.39H49.65H50.65C50.65 32.0454 50.6109 29.8745 50.5259 28.9395L49.53 29.03ZM49.65 35.39V36.39H52.02V35.39V34.39H49.65V35.39ZM52.02 35.39V36.39C53.7017 36.39 54.9504 36.3506 55.7304 36.2639L55.62 35.27L55.5096 34.2761C54.8496 34.3494 53.6983 34.39 52.02 34.39V35.39ZM55.62 35.27L54.7256 35.7172C54.7078 35.6817 54.7038 35.6628 54.7063 35.672C54.7084 35.6799 54.7136 35.7026 54.7194 35.7441C54.7311 35.8291 54.74 35.9579 54.74 36.14H55.74H56.74C56.74 35.7204 56.7102 35.2143 56.5144 34.8228L55.62 35.27ZM55.74 36.14H54.74C54.74 36.1948 54.7362 36.2332 54.7322 36.2578C54.7283 36.2823 54.7247 36.2895 54.7267 36.2843C54.7291 36.2785 54.7369 36.2608 54.7544 36.2375C54.7723 36.2136 54.7953 36.1905 54.8218 36.1713L55.41 36.98L55.9982 37.7887C56.5826 37.3637 56.74 36.7018 56.74 36.14H55.74ZM55.41 36.98L54.7853 36.1991C54.8315 36.1622 54.8388 36.1758 54.7485 36.199C54.6623 36.2212 54.5243 36.2426 54.32 36.2508L54.36 37.25L54.4 38.2492C54.9415 38.2275 55.5711 38.1317 56.0347 37.7609L55.41 36.98ZM54.36 37.25L54.3184 36.2509C53.8594 36.27 53.1858 36.28 52.29 36.28V37.28V38.28C53.1942 38.28 53.9006 38.27 54.4016 38.2491L54.36 37.25ZM52.29 37.28V36.28H49.65V37.28V38.28H52.29V37.28ZM49.65 37.28H48.65C48.65 41.5998 48.7168 44.319 48.8724 45.2971L49.86 45.14L50.8476 44.9829C50.7232 44.201 50.65 41.6802 50.65 37.28H49.65ZM49.86 45.14L49.8146 46.139C50.7016 46.1793 51.4285 46.2 51.99 46.2V45.2V44.2C51.4715 44.2 50.7784 44.1807 49.9054 44.141L49.86 45.14ZM51.99 45.2V46.2C53.6884 46.2 55.1048 46.1421 56.2289 46.0218C57.3231 45.9048 58.2435 45.7195 58.8796 45.4082L58.44 44.51L58.0004 43.6118C57.6965 43.7605 57.0719 43.9202 56.0161 44.0332C54.9902 44.1429 53.6516 44.2 51.99 44.2V45.2ZM58.44 44.51L57.5115 44.8814C57.6255 45.1664 57.68 45.4505 57.68 45.74H58.68H59.68C59.68 45.1895 59.5745 44.6536 59.3685 44.1386L58.44 44.51ZM58.68 45.74H57.68C57.68 45.81 57.6762 45.8642 57.6711 45.9049C57.6659 45.9457 57.6599 45.9681 57.6574 45.9761C57.6525 45.992 57.6682 45.9315 57.7456 45.8626L58.41 46.61L59.0744 47.3574C59.5821 46.9061 59.68 46.2451 59.68 45.74H58.68ZM58.41 46.61L57.7698 45.8418C57.8702 45.7581 57.9043 45.7826 57.6883 45.8338C57.5124 45.8754 57.2508 45.9169 56.8881 45.9522C56.1656 46.0226 55.1379 46.06 53.79 46.06V47.06V48.06C55.1621 48.06 56.2644 48.0224 57.0819 47.9428C57.4892 47.9031 57.8501 47.8508 58.1492 47.78C58.4082 47.7186 58.7698 47.6119 59.0502 47.3782L58.41 46.61ZM53.79 47.06V46.06C51.0548 46.06 49.4351 46.0395 48.8765 46.0022L48.81 47L48.7435 47.9978C49.3849 48.0405 51.0852 48.06 53.79 48.06V47.06ZM48.81 47L48.8445 46.0006C48.6199 45.9929 48.4875 45.9629 48.4204 45.9388C48.3584 45.9166 48.3887 45.9132 48.4326 45.9703L47.64 46.58L46.8474 47.1897C47.3298 47.8169 48.1149 47.9766 48.7755 47.9994L48.81 47ZM47.64 46.58L48.4326 45.9703C48.4444 45.9856 48.4172 45.9574 48.389 45.836C48.3612 45.7163 48.34 45.539 48.34 45.29H47.34H46.34C46.34 45.9504 46.4402 46.6604 46.8474 47.1897L47.64 46.58Z" fill="black" mask="url(#path-1-outside-1_728_123)"/>
<mask id="path-3-outside-2_728_123" maskUnits="userSpaceOnUse" x="91" y="26" width="16" height="23" fill="black">
<rect fill="white" x="91" y="26" width="16" height="23"/>
<path d="M97.82 45.38L97.88 40.07V34.07C97.88 32.21 97.85 30.5 97.79 28.94C94.95 28.94 93.05 28.98 92.09 29.06C92.03 28.88 92 28.6 92 28.22C92 27.84 92.1 27.58 92.3 27.44C92.52 27.3 92.87 27.22 93.35 27.2C93.83 27.18 94.89 27.17 96.53 27.17H100.07C103.23 27.17 105.16 27.14 105.86 27.08C105.92 27.26 105.95 27.54 105.95 27.92C105.95 28.28 105.84 28.53 105.62 28.67C105.42 28.81 105.05 28.89 104.51 28.91C103.97 28.93 102.58 28.94 100.34 28.94C100.2 31.8 100.13 33.78 100.13 34.88V40.91C100.13 43.61 100.32 45.59 100.7 46.85C100.34 47.01 99.87 47.09 99.29 47.09C98.71 47.09 98.32 46.96 98.12 46.7C97.92 46.44 97.82 46 97.82 45.38Z"/>
</mask>
<path d="M97.82 45.38L97.88 40.07V34.07C97.88 32.21 97.85 30.5 97.79 28.94C94.95 28.94 93.05 28.98 92.09 29.06C92.03 28.88 92 28.6 92 28.22C92 27.84 92.1 27.58 92.3 27.44C92.52 27.3 92.87 27.22 93.35 27.2C93.83 27.18 94.89 27.17 96.53 27.17H100.07C103.23 27.17 105.16 27.14 105.86 27.08C105.92 27.26 105.95 27.54 105.95 27.92C105.95 28.28 105.84 28.53 105.62 28.67C105.42 28.81 105.05 28.89 104.51 28.91C103.97 28.93 102.58 28.94 100.34 28.94C100.2 31.8 100.13 33.78 100.13 34.88V40.91C100.13 43.61 100.32 45.59 100.7 46.85C100.34 47.01 99.87 47.09 99.29 47.09C98.71 47.09 98.32 46.96 98.12 46.7C97.92 46.44 97.82 46 97.82 45.38Z" fill="black"/>
<path d="M97.82 45.38L96.82 45.3687V45.38H97.82ZM97.88 40.07L98.88 40.0813V40.07H97.88ZM97.79 28.94L98.7893 28.9016L98.7523 27.94H97.79V28.94ZM92.09 29.06L91.1413 29.3762L91.3898 30.1218L92.173 30.0565L92.09 29.06ZM92.3 27.44L91.7631 26.5963L91.7446 26.6082L91.7265 26.6208L92.3 27.44ZM93.35 27.2L93.3084 26.2009L93.35 27.2ZM105.86 27.08L106.809 26.7638L106.56 26.0164L105.775 26.0837L105.86 27.08ZM105.62 28.67L105.083 27.8263L105.065 27.8382L105.047 27.8508L105.62 28.67ZM100.34 28.94V27.94H99.3878L99.3412 28.8911L100.34 28.94ZM100.7 46.85L101.106 47.7638L101.912 47.4056L101.657 46.5613L100.7 46.85ZM98.12 46.7L97.3274 47.3097L98.12 46.7ZM97.82 45.38L98.8199 45.3913L98.8799 40.0813L97.88 40.07L96.8801 40.0587L96.8201 45.3687L97.82 45.38ZM97.88 40.07H98.88V34.07H97.88H96.88V40.07H97.88ZM97.88 34.07H98.88C98.88 32.1995 98.8498 30.4765 98.7893 28.9016L97.79 28.94L96.7907 28.9784C96.8502 30.5235 96.88 32.2205 96.88 34.07H97.88ZM97.79 28.94V27.94C94.9564 27.94 93.0151 27.9794 92.007 28.0635L92.09 29.06L92.173 30.0565C93.0849 29.9806 94.9436 29.94 97.79 29.94V28.94ZM92.09 29.06L93.0387 28.7438C93.0394 28.746 93.0275 28.7079 93.0168 28.6085C93.0066 28.5136 93 28.3858 93 28.22H92H91C91 28.6222 91.0281 29.0365 91.1413 29.3762L92.09 29.06ZM92 28.22H93C93 28.1681 93.0035 28.1329 93.0068 28.1119C93.0101 28.0908 93.0125 28.0883 93.0083 28.099C93.004 28.1104 92.9925 28.1358 92.9687 28.1675C92.9443 28.2 92.9122 28.2321 92.8735 28.2592L92.3 27.44L91.7265 26.6208C91.1356 27.0344 91 27.7014 91 28.22H92ZM92.3 27.44L92.8369 28.2837C92.8217 28.2933 92.8478 28.2733 92.9503 28.2499C93.0497 28.2271 93.1936 28.2074 93.3916 28.1991L93.35 27.2L93.3084 26.2009C92.7782 26.223 92.2104 26.3117 91.7631 26.5963L92.3 27.44ZM93.35 27.2L93.3916 28.1991C93.8467 28.1802 94.8845 28.17 96.53 28.17V27.17V26.17C94.8955 26.17 93.8133 26.1798 93.3084 26.2009L93.35 27.2ZM96.53 27.17V28.17H100.07V27.17V26.17H96.53V27.17ZM100.07 27.17V28.17C103.211 28.17 105.192 28.1409 105.945 28.0763L105.86 27.08L105.775 26.0837C105.128 26.1391 103.249 26.17 100.07 26.17V27.17ZM105.86 27.08L104.911 27.3962C104.911 27.394 104.923 27.4321 104.933 27.5315C104.943 27.6264 104.95 27.7542 104.95 27.92H105.95H106.95C106.95 27.5178 106.922 27.1035 106.809 26.7638L105.86 27.08ZM105.95 27.92H104.95C104.95 28.0033 104.937 28.0102 104.952 27.9748C104.961 27.9554 104.976 27.9279 105.001 27.8984C105.026 27.8686 105.055 27.8443 105.083 27.8263L105.62 28.67L106.157 29.5137C106.769 29.1244 106.95 28.4783 106.95 27.92H105.95ZM105.62 28.67L105.047 27.8508C105.099 27.8142 105.1 27.8319 104.981 27.8576C104.872 27.8812 104.707 27.902 104.473 27.9107L104.51 28.91L104.547 29.9093C105.097 29.889 105.733 29.8113 106.193 29.4892L105.62 28.67ZM104.51 28.91L104.473 27.9107C103.956 27.9298 102.587 27.94 100.34 27.94V28.94V29.94C102.573 29.94 103.984 29.9302 104.547 29.9093L104.51 28.91ZM100.34 28.94L99.3412 28.8911C99.2013 31.7497 99.13 33.7524 99.13 34.88H100.13H101.13C101.13 33.8076 101.199 31.8503 101.339 28.9889L100.34 28.94ZM100.13 34.88H99.13V40.91H100.13H101.13V34.88H100.13ZM100.13 40.91H99.13C99.13 43.6276 99.318 45.7309 99.7426 47.1387L100.7 46.85L101.657 46.5613C101.322 45.4491 101.13 43.5924 101.13 40.91H100.13ZM100.7 46.85L100.294 45.9362C100.107 46.0191 99.7906 46.09 99.29 46.09V47.09V48.09C99.9494 48.09 100.573 48.0009 101.106 47.7638L100.7 46.85ZM99.29 47.09V46.09C99.067 46.09 98.9394 46.064 98.8787 46.0438C98.8248 46.0258 98.8636 46.0265 98.9126 46.0903L98.12 46.7L97.3274 47.3097C97.8224 47.9533 98.6285 48.09 99.29 48.09V47.09ZM98.12 46.7L98.9126 46.0903C98.9274 46.1095 98.8994 46.0822 98.8701 45.9534C98.8415 45.8274 98.82 45.641 98.82 45.38H97.82H96.82C96.82 46.0513 96.9172 46.7765 97.3274 47.3097L98.12 46.7Z" fill="black" mask="url(#path-3-outside-2_728_123)"/>
<mask id="path-5-outside-3_728_123" maskUnits="userSpaceOnUse" x="110" y="25" width="21" height="24" fill="black">
<rect fill="white" x="110" y="25" width="21" height="24"/>
<path d="M129.89 37.04C129.89 40.16 129.05 42.65 127.37 44.51C125.71 46.37 123.47 47.3 120.65 47.3C117.85 47.3 115.62 46.37 113.96 44.51C112.3 42.65 111.47 40.16 111.47 37.04C111.47 33.92 112.3 31.44 113.96 29.6C115.62 27.74 117.85 26.81 120.65 26.81C123.47 26.81 125.71 27.74 127.37 29.6C129.05 31.44 129.89 33.92 129.89 37.04ZM125.87 31.55C125.37 30.67 124.67 29.97 123.77 29.45C122.87 28.91 121.84 28.64 120.68 28.64C118.62 28.64 116.98 29.35 115.76 30.77C114.54 32.17 113.93 33.96 113.93 36.14C113.93 38.52 114.43 40.63 115.43 42.47C115.93 43.39 116.62 44.12 117.5 44.66C118.4 45.2 119.44 45.47 120.62 45.47C122.78 45.47 124.44 44.75 125.6 43.31C126.78 41.85 127.37 39.97 127.37 37.67C127.37 35.35 126.87 33.31 125.87 31.55Z"/>
</mask>
<path d="M129.89 37.04C129.89 40.16 129.05 42.65 127.37 44.51C125.71 46.37 123.47 47.3 120.65 47.3C117.85 47.3 115.62 46.37 113.96 44.51C112.3 42.65 111.47 40.16 111.47 37.04C111.47 33.92 112.3 31.44 113.96 29.6C115.62 27.74 117.85 26.81 120.65 26.81C123.47 26.81 125.71 27.74 127.37 29.6C129.05 31.44 129.89 33.92 129.89 37.04ZM125.87 31.55C125.37 30.67 124.67 29.97 123.77 29.45C122.87 28.91 121.84 28.64 120.68 28.64C118.62 28.64 116.98 29.35 115.76 30.77C114.54 32.17 113.93 33.96 113.93 36.14C113.93 38.52 114.43 40.63 115.43 42.47C115.93 43.39 116.62 44.12 117.5 44.66C118.4 45.2 119.44 45.47 120.62 45.47C122.78 45.47 124.44 44.75 125.6 43.31C126.78 41.85 127.37 39.97 127.37 37.67C127.37 35.35 126.87 33.31 125.87 31.55Z" fill="black"/>
<path d="M127.37 44.51L126.628 43.8397L126.624 43.8441L127.37 44.51ZM113.96 44.51L113.214 45.1759L113.214 45.1759L113.96 44.51ZM113.96 29.6L114.703 30.2699L114.706 30.2659L113.96 29.6ZM127.37 29.6L126.624 30.2659L126.632 30.2743L127.37 29.6ZM125.87 31.55L126.739 31.056L126.739 31.056L125.87 31.55ZM123.77 29.45L123.256 30.3075L123.263 30.3117L123.27 30.3159L123.77 29.45ZM115.76 30.77L116.514 31.427L116.519 31.4217L115.76 30.77ZM115.43 42.47L114.551 42.9475L114.551 42.9475L115.43 42.47ZM117.5 44.66L116.977 45.5124L116.986 45.5175L117.5 44.66ZM125.6 43.31L124.822 42.6814L124.821 42.6827L125.6 43.31ZM129.89 37.04H128.89C128.89 39.9755 128.104 42.2055 126.628 43.8397L127.37 44.51L128.112 45.1803C129.996 43.0945 130.89 40.3445 130.89 37.04H129.89ZM127.37 44.51L126.624 43.8441C125.18 45.4624 123.227 46.3 120.65 46.3V47.3V48.3C123.713 48.3 126.24 47.2776 128.116 45.1759L127.37 44.51ZM120.65 47.3V46.3C118.096 46.3 116.152 45.4641 114.706 43.8441L113.96 44.51L113.214 45.1759C115.088 47.2759 117.604 48.3 120.65 48.3V47.3ZM113.96 44.51L114.706 43.8441C113.248 42.2102 112.47 39.9785 112.47 37.04H111.47H110.47C110.47 40.3415 111.352 43.0898 113.214 45.1759L113.96 44.51ZM111.47 37.04H112.47C112.47 34.101 113.248 31.8821 114.702 30.2699L113.96 29.6L113.218 28.9301C111.352 30.9979 110.47 33.739 110.47 37.04H111.47ZM113.96 29.6L114.706 30.2659C116.152 28.6459 118.096 27.81 120.65 27.81V26.81V25.81C117.604 25.81 115.088 26.8341 113.214 28.9341L113.96 29.6ZM120.65 26.81V27.81C123.227 27.81 125.18 28.6476 126.624 30.2659L127.37 29.6L128.116 28.9341C126.24 26.8324 123.713 25.81 120.65 25.81V26.81ZM127.37 29.6L126.632 30.2743C128.104 31.8867 128.89 34.104 128.89 37.04H129.89H130.89C130.89 33.736 129.996 30.9933 128.108 28.9257L127.37 29.6ZM125.87 31.55L126.739 31.056C126.149 30.0171 125.32 29.1906 124.27 28.5841L123.77 29.45L123.27 30.3159C124.02 30.7494 124.591 31.3229 125.001 32.044L125.87 31.55ZM123.77 29.45L124.284 28.5925C123.213 27.9496 122.002 27.64 120.68 27.64V28.64V29.64C121.678 29.64 122.527 29.8703 123.256 30.3075L123.77 29.45ZM120.68 28.64V27.64C118.361 27.64 116.432 28.4534 115.001 30.1183L115.76 30.77L116.519 31.4217C117.528 30.2466 118.879 29.64 120.68 29.64V28.64ZM115.76 30.77L115.006 30.113C113.601 31.726 112.93 33.7628 112.93 36.14H113.93H114.93C114.93 34.1572 115.479 32.614 116.514 31.427L115.76 30.77ZM113.93 36.14H112.93C112.93 38.6638 113.461 40.942 114.551 42.9475L115.43 42.47L116.309 41.9925C115.399 40.318 114.93 38.3762 114.93 36.14H113.93ZM115.43 42.47L114.551 42.9475C115.134 44.0192 115.945 44.8793 116.977 45.5123L117.5 44.66L118.023 43.8077C117.295 43.3607 116.726 42.7608 116.309 41.9925L115.43 42.47ZM117.5 44.66L116.986 45.5175C118.06 46.1619 119.282 46.47 120.62 46.47V45.47V44.47C119.598 44.47 118.74 44.2381 118.014 43.8025L117.5 44.66ZM120.62 45.47V46.47C123.026 46.47 124.996 45.654 126.379 43.9373L125.6 43.31L124.821 42.6827C123.884 43.846 122.534 44.47 120.62 44.47V45.47ZM125.6 43.31L126.378 43.9386C127.732 42.2633 128.37 40.1456 128.37 37.67H127.37H126.37C126.37 39.7944 125.828 41.4367 124.822 42.6814L125.6 43.31ZM127.37 37.67H128.37C128.37 35.2025 127.837 32.9874 126.739 31.056L125.87 31.55L125.001 32.044C125.903 33.6326 126.37 35.4975 126.37 37.67H127.37Z" fill="black" mask="url(#path-5-outside-3_728_123)"/>
<mask id="path-7-outside-4_728_123" maskUnits="userSpaceOnUse" x="134" y="25" width="21" height="24" fill="black">
<rect fill="white" x="134" y="25" width="21" height="24"/>
<path d="M153.89 37.04C153.89 40.16 153.05 42.65 151.37 44.51C149.71 46.37 147.47 47.3 144.65 47.3C141.85 47.3 139.62 46.37 137.96 44.51C136.3 42.65 135.47 40.16 135.47 37.04C135.47 33.92 136.3 31.44 137.96 29.6C139.62 27.74 141.85 26.81 144.65 26.81C147.47 26.81 149.71 27.74 151.37 29.6C153.05 31.44 153.89 33.92 153.89 37.04ZM149.87 31.55C149.37 30.67 148.67 29.97 147.77 29.45C146.87 28.91 145.84 28.64 144.68 28.64C142.62 28.64 140.98 29.35 139.76 30.77C138.54 32.17 137.93 33.96 137.93 36.14C137.93 38.52 138.43 40.63 139.43 42.47C139.93 43.39 140.62 44.12 141.5 44.66C142.4 45.2 143.44 45.47 144.62 45.47C146.78 45.47 148.44 44.75 149.6 43.31C150.78 41.85 151.37 39.97 151.37 37.67C151.37 35.35 150.87 33.31 149.87 31.55Z"/>
</mask>
<path d="M153.89 37.04C153.89 40.16 153.05 42.65 151.37 44.51C149.71 46.37 147.47 47.3 144.65 47.3C141.85 47.3 139.62 46.37 137.96 44.51C136.3 42.65 135.47 40.16 135.47 37.04C135.47 33.92 136.3 31.44 137.96 29.6C139.62 27.74 141.85 26.81 144.65 26.81C147.47 26.81 149.71 27.74 151.37 29.6C153.05 31.44 153.89 33.92 153.89 37.04ZM149.87 31.55C149.37 30.67 148.67 29.97 147.77 29.45C146.87 28.91 145.84 28.64 144.68 28.64C142.62 28.64 140.98 29.35 139.76 30.77C138.54 32.17 137.93 33.96 137.93 36.14C137.93 38.52 138.43 40.63 139.43 42.47C139.93 43.39 140.62 44.12 141.5 44.66C142.4 45.2 143.44 45.47 144.62 45.47C146.78 45.47 148.44 44.75 149.6 43.31C150.78 41.85 151.37 39.97 151.37 37.67C151.37 35.35 150.87 33.31 149.87 31.55Z" fill="black"/>
<path d="M151.37 44.51L150.628 43.8397L150.624 43.8441L151.37 44.51ZM137.96 44.51L137.214 45.1759L137.214 45.1759L137.96 44.51ZM137.96 29.6L138.703 30.2699L138.706 30.2659L137.96 29.6ZM151.37 29.6L150.624 30.2659L150.632 30.2743L151.37 29.6ZM149.87 31.55L150.739 31.056L150.739 31.056L149.87 31.55ZM147.77 29.45L147.256 30.3075L147.263 30.3117L147.27 30.3159L147.77 29.45ZM139.76 30.77L140.514 31.427L140.519 31.4217L139.76 30.77ZM139.43 42.47L138.551 42.9475L138.551 42.9475L139.43 42.47ZM141.5 44.66L140.977 45.5124L140.986 45.5175L141.5 44.66ZM149.6 43.31L148.822 42.6814L148.821 42.6827L149.6 43.31ZM153.89 37.04H152.89C152.89 39.9755 152.104 42.2055 150.628 43.8397L151.37 44.51L152.112 45.1803C153.996 43.0945 154.89 40.3445 154.89 37.04H153.89ZM151.37 44.51L150.624 43.8441C149.18 45.4624 147.227 46.3 144.65 46.3V47.3V48.3C147.713 48.3 150.24 47.2776 152.116 45.1759L151.37 44.51ZM144.65 47.3V46.3C142.096 46.3 140.152 45.4641 138.706 43.8441L137.96 44.51L137.214 45.1759C139.088 47.2759 141.604 48.3 144.65 48.3V47.3ZM137.96 44.51L138.706 43.8441C137.248 42.2102 136.47 39.9785 136.47 37.04H135.47H134.47C134.47 40.3415 135.352 43.0898 137.214 45.1759L137.96 44.51ZM135.47 37.04H136.47C136.47 34.101 137.248 31.8821 138.702 30.2699L137.96 29.6L137.218 28.9301C135.352 30.9979 134.47 33.739 134.47 37.04H135.47ZM137.96 29.6L138.706 30.2659C140.152 28.6459 142.096 27.81 144.65 27.81V26.81V25.81C141.604 25.81 139.088 26.8341 137.214 28.9341L137.96 29.6ZM144.65 26.81V27.81C147.227 27.81 149.18 28.6476 150.624 30.2659L151.37 29.6L152.116 28.9341C150.24 26.8324 147.713 25.81 144.65 25.81V26.81ZM151.37 29.6L150.632 30.2743C152.104 31.8867 152.89 34.104 152.89 37.04H153.89H154.89C154.89 33.736 153.996 30.9933 152.108 28.9257L151.37 29.6ZM149.87 31.55L150.739 31.056C150.149 30.0171 149.32 29.1906 148.27 28.5841L147.77 29.45L147.27 30.3159C148.02 30.7494 148.591 31.3229 149.001 32.044L149.87 31.55ZM147.77 29.45L148.284 28.5925C147.213 27.9496 146.002 27.64 144.68 27.64V28.64V29.64C145.678 29.64 146.527 29.8703 147.256 30.3075L147.77 29.45ZM144.68 28.64V27.64C142.361 27.64 140.432 28.4534 139.001 30.1183L139.76 30.77L140.519 31.4217C141.528 30.2466 142.879 29.64 144.68 29.64V28.64ZM139.76 30.77L139.006 30.113C137.601 31.726 136.93 33.7628 136.93 36.14H137.93H138.93C138.93 34.1572 139.479 32.614 140.514 31.427L139.76 30.77ZM137.93 36.14H136.93C136.93 38.6638 137.461 40.942 138.551 42.9475L139.43 42.47L140.309 41.9925C139.399 40.318 138.93 38.3762 138.93 36.14H137.93ZM139.43 42.47L138.551 42.9475C139.134 44.0192 139.945 44.8793 140.977 45.5123L141.5 44.66L142.023 43.8077C141.295 43.3607 140.726 42.7608 140.309 41.9925L139.43 42.47ZM141.5 44.66L140.986 45.5175C142.06 46.1619 143.282 46.47 144.62 46.47V45.47V44.47C143.598 44.47 142.74 44.2381 142.014 43.8025L141.5 44.66ZM144.62 45.47V46.47C147.026 46.47 148.996 45.654 150.379 43.9373L149.6 43.31L148.821 42.6827C147.884 43.846 146.534 44.47 144.62 44.47V45.47ZM149.6 43.31L150.378 43.9386C151.732 42.2633 152.37 40.1456 152.37 37.67H151.37H150.37C150.37 39.7944 149.828 41.4367 148.822 42.6814L149.6 43.31ZM151.37 37.67H152.37C152.37 35.2025 151.837 32.9874 150.739 31.056L149.87 31.55L149.001 32.044C149.903 33.6326 150.37 35.4975 150.37 37.67H151.37Z" fill="black" mask="url(#path-7-outside-4_728_123)"/>
<mask id="path-9-outside-5_728_123" maskUnits="userSpaceOnUse" x="80" y="42" width="8" height="13" fill="black">
<rect fill="white" x="80" y="42" width="8" height="13"/>
<path d="M84.745 48.77C84.745 47.6267 84.1733 46.9383 83.03 46.705C82.7967 46.3317 82.68 45.9233 82.68 45.48C82.68 45.0367 82.8783 44.6517 83.275 44.325C83.6717 43.975 84.1617 43.8 84.745 43.8C85.3283 43.8 85.83 44.0683 86.25 44.605C86.6933 45.1417 86.915 46.0633 86.915 47.37C86.915 48.6533 86.5067 49.9133 85.69 51.15C84.8967 52.3867 83.9517 53.005 82.855 53.005C82.2483 53.005 81.945 52.655 81.945 51.955C81.945 51.7683 81.9567 51.6283 81.98 51.535H82.155C82.9017 51.535 83.52 51.255 84.01 50.695C84.5 50.135 84.745 49.4933 84.745 48.77Z"/>
</mask>
<path d="M84.745 48.77C84.745 47.6267 84.1733 46.9383 83.03 46.705C82.7967 46.3317 82.68 45.9233 82.68 45.48C82.68 45.0367 82.8783 44.6517 83.275 44.325C83.6717 43.975 84.1617 43.8 84.745 43.8C85.3283 43.8 85.83 44.0683 86.25 44.605C86.6933 45.1417 86.915 46.0633 86.915 47.37C86.915 48.6533 86.5067 49.9133 85.69 51.15C84.8967 52.3867 83.9517 53.005 82.855 53.005C82.2483 53.005 81.945 52.655 81.945 51.955C81.945 51.7683 81.9567 51.6283 81.98 51.535H82.155C82.9017 51.535 83.52 51.255 84.01 50.695C84.5 50.135 84.745 49.4933 84.745 48.77Z" fill="black"/>
<path d="M83.03 46.705L82.182 47.235L82.4095 47.599L82.83 47.6848L83.03 46.705ZM83.275 44.325L83.9107 45.0969L83.9239 45.0861L83.9366 45.0748L83.275 44.325ZM86.25 44.605L85.4625 45.2213L85.4706 45.2317L85.479 45.2419L86.25 44.605ZM85.69 51.15L84.8555 50.5989L84.8483 50.61L85.69 51.15ZM81.98 51.535V50.535H81.1992L81.0099 51.2925L81.98 51.535ZM84.01 50.695L83.2574 50.0365L84.01 50.695ZM84.745 48.77H85.745C85.745 48.0311 85.5579 47.3261 85.0855 46.7573C84.6151 46.191 83.9562 45.8734 83.23 45.7252L83.03 46.705L82.83 47.6848C83.2471 47.7699 83.4457 47.9132 83.547 48.0352C83.6463 48.1547 83.745 48.3655 83.745 48.77H84.745ZM83.03 46.705L83.878 46.175C83.7447 45.9618 83.68 45.7373 83.68 45.48H82.68H81.68C81.68 46.1094 81.8486 46.7016 82.182 47.235L83.03 46.705ZM82.68 45.48H83.68C83.68 45.3848 83.7037 45.2674 83.9107 45.0969L83.275 44.325L82.6393 43.5531C82.053 44.0359 81.68 44.6885 81.68 45.48H82.68ZM83.275 44.325L83.9366 45.0748C84.1313 44.903 84.3784 44.8 84.745 44.8V43.8V42.8C83.945 42.8 83.212 43.047 82.6134 43.5752L83.275 44.325ZM84.745 43.8V44.8C84.9669 44.8 85.1962 44.881 85.4625 45.2213L86.25 44.605L87.0375 43.9887C86.4638 43.2557 85.6897 42.8 84.745 42.8V43.8ZM86.25 44.605L85.479 45.2419C85.6909 45.4984 85.915 46.1179 85.915 47.37H86.915H87.915C87.915 46.0088 87.6957 44.785 87.021 43.9681L86.25 44.605ZM86.915 47.37H85.915C85.915 48.4284 85.5814 49.4998 84.8555 50.5989L85.69 51.15L86.5245 51.7011C87.432 50.3269 87.915 48.8782 87.915 47.37H86.915ZM85.69 51.15L84.8483 50.61C84.1693 51.6686 83.4996 52.005 82.855 52.005V53.005V54.005C84.4038 54.005 85.6241 53.1048 86.5317 51.69L85.69 51.15ZM82.855 53.005V52.005C82.7972 52.005 82.7909 51.9964 82.8159 52.006C82.829 52.0111 82.848 52.0202 82.8697 52.0352C82.8915 52.0503 82.9114 52.0682 82.9282 52.0876C82.9628 52.1275 82.9675 52.1537 82.9626 52.1368C82.9568 52.117 82.945 52.061 82.945 51.955H81.945H80.945C80.945 52.4268 81.0442 52.9674 81.4168 53.3974C81.8132 53.8548 82.3573 54.005 82.855 54.005V53.005ZM81.945 51.955H82.945C82.945 51.881 82.9474 51.8282 82.9503 51.793C82.9535 51.7547 82.956 51.754 82.9501 51.7775L81.98 51.535L81.0099 51.2925C80.9559 51.5082 80.945 51.7479 80.945 51.955H81.945ZM81.98 51.535V52.535H82.155V51.535V50.535H81.98V51.535ZM82.155 51.535V52.535C83.1889 52.535 84.0819 52.1314 84.7626 51.3535L84.01 50.695L83.2574 50.0365C82.9581 50.3786 82.6144 50.535 82.155 50.535V51.535ZM84.01 50.695L84.7626 51.3535C85.4071 50.617 85.745 49.7431 85.745 48.77H84.745H83.745C83.745 49.2436 83.5929 49.653 83.2574 50.0365L84.01 50.695Z" fill="black" mask="url(#path-9-outside-5_728_123)"/>
<mask id="path-11-outside-6_728_123" maskUnits="userSpaceOnUse" x="0" y="25" width="18" height="24" fill="black">
<rect fill="white" y="25" width="18" height="24"/>
<path d="M15.42 42.98C16.3 43.34 16.74 43.86 16.74 44.54C16.74 45.2 16.17 45.83 15.03 46.43C13.89 47.01 12.48 47.3 10.8 47.3C7.98 47.3 5.72 46.36 4.02 44.48C2.32 42.58 1.47 40.07 1.47 36.95C1.47 33.81 2.32 31.34 4.02 29.54C5.72 27.72 8.02 26.81 10.92 26.81C12.48 26.81 13.79 27.13 14.85 27.77C15.91 28.39 16.44 29.16 16.44 30.08C16.44 30.9 15.87 31.4 14.73 31.58C14.35 30.6 13.75 29.87 12.93 29.39C12.11 28.89 11.24 28.64 10.32 28.64C8.44 28.64 6.9 29.39 5.7 30.89C4.52 32.37 3.93 34.31 3.93 36.71C3.93 39.09 4.53 41.15 5.73 42.89C6.93 44.61 8.61 45.47 10.77 45.47C11.73 45.47 12.62 45.26 13.44 44.84C14.28 44.42 14.94 43.8 15.42 42.98Z"/>
</mask>
<path d="M15.42 42.98C16.3 43.34 16.74 43.86 16.74 44.54C16.74 45.2 16.17 45.83 15.03 46.43C13.89 47.01 12.48 47.3 10.8 47.3C7.98 47.3 5.72 46.36 4.02 44.48C2.32 42.58 1.47 40.07 1.47 36.95C1.47 33.81 2.32 31.34 4.02 29.54C5.72 27.72 8.02 26.81 10.92 26.81C12.48 26.81 13.79 27.13 14.85 27.77C15.91 28.39 16.44 29.16 16.44 30.08C16.44 30.9 15.87 31.4 14.73 31.58C14.35 30.6 13.75 29.87 12.93 29.39C12.11 28.89 11.24 28.64 10.32 28.64C8.44 28.64 6.9 29.39 5.7 30.89C4.52 32.37 3.93 34.31 3.93 36.71C3.93 39.09 4.53 41.15 5.73 42.89C6.93 44.61 8.61 45.47 10.77 45.47C11.73 45.47 12.62 45.26 13.44 44.84C14.28 44.42 14.94 43.8 15.42 42.98Z" fill="black"/>
<path d="M15.42 42.98L15.7986 42.0545L14.9954 41.7259L14.557 42.4748L15.42 42.98ZM15.03 46.43L15.4835 47.3214L15.4957 47.3149L15.03 46.43ZM4.02 44.48L3.27475 45.1468L3.27828 45.1507L4.02 44.48ZM4.02 29.54L4.74702 30.2266L4.75079 30.2226L4.02 29.54ZM14.85 27.77L14.3331 28.6261L14.3451 28.6332L14.85 27.77ZM14.73 31.58L13.7976 31.9415L14.0892 32.6936L14.886 32.5678L14.73 31.58ZM12.93 29.39L12.4094 30.2438L12.4171 30.2485L12.4248 30.253L12.93 29.39ZM5.7 30.89L4.91913 30.2653L4.9181 30.2666L5.7 30.89ZM5.73 42.89L4.90678 43.4577L4.90987 43.4622L5.73 42.89ZM13.44 44.84L12.9928 43.9455L12.9841 43.95L13.44 44.84ZM15.42 42.98L15.0414 43.9055C15.7238 44.1847 15.74 44.4293 15.74 44.54H16.74H17.74C17.74 43.2907 16.8762 42.4953 15.7986 42.0545L15.42 42.98ZM16.74 44.54H15.74C15.74 44.5786 15.6812 44.9572 14.5643 45.5451L15.03 46.43L15.4957 47.3149C16.6588 46.7028 17.74 45.8214 17.74 44.54H16.74ZM15.03 46.43L14.5765 45.5387C13.614 46.0284 12.3699 46.3 10.8 46.3V47.3V48.3C12.5901 48.3 14.166 47.9916 15.4835 47.3213L15.03 46.43ZM10.8 47.3V46.3C8.22725 46.3 6.24961 45.4547 4.76172 43.8093L4.02 44.48L3.27828 45.1507C5.19039 47.2653 7.73276 48.3 10.8 48.3V47.3ZM4.02 44.48L4.76524 43.8132C3.26402 42.1354 2.47 39.8816 2.47 36.95H1.47H0.47C0.47 40.2584 1.37598 43.0246 3.27476 45.1468L4.02 44.48ZM1.47 36.95H2.47C2.47 33.994 3.26587 31.7949 4.74701 30.2266L4.02 29.54L3.29299 28.8534C1.37413 30.8851 0.47 33.626 0.47 36.95H1.47ZM4.02 29.54L4.75079 30.2226C6.23019 28.6388 8.24728 27.81 10.92 27.81V26.81V25.81C7.79272 25.81 5.20981 26.8012 3.28921 28.8574L4.02 29.54ZM10.92 26.81V27.81C12.3447 27.81 13.4648 28.1018 14.3331 28.6261L14.85 27.77L15.3669 26.9139C14.1152 26.1582 12.6153 25.81 10.92 25.81V26.81ZM14.85 27.77L14.3451 28.6332C15.215 29.142 15.44 29.6322 15.44 30.08H16.44H17.44C17.44 28.6878 16.605 27.638 15.3549 26.9068L14.85 27.77ZM16.44 30.08H15.44C15.44 30.2285 15.4025 30.2749 15.3531 30.3182C15.2662 30.3945 15.0478 30.5174 14.574 30.5922L14.73 31.58L14.886 32.5678C15.5522 32.4626 16.1888 32.2455 16.6719 31.8218C17.1925 31.3651 17.44 30.7515 17.44 30.08H16.44ZM14.73 31.58L15.6624 31.2185C15.2099 30.0516 14.471 29.1333 13.4352 28.527L12.93 29.39L12.4248 30.253C13.029 30.6067 13.4901 31.1484 13.7976 31.9415L14.73 31.58ZM12.93 29.39L13.4506 28.5362C12.481 27.945 11.4319 27.64 10.32 27.64V28.64V29.64C11.0481 29.64 11.739 29.835 12.4094 30.2438L12.93 29.39ZM10.32 28.64V27.64C8.1286 27.64 6.30409 28.5341 4.91913 30.2653L5.7 30.89L6.48087 31.5147C7.49591 30.2459 8.7514 29.64 10.32 29.64V28.64ZM5.7 30.89L4.9181 30.2666C3.56268 31.9666 2.93 34.1453 2.93 36.71H3.93H4.93C4.93 34.4747 5.47732 32.7734 6.4819 31.5134L5.7 30.89ZM3.93 36.71H2.93C2.93 39.2663 3.57746 41.5302 4.90679 43.4577L5.73 42.89L6.55321 42.3223C5.48254 40.7698 4.93 38.9137 4.93 36.71H3.93ZM5.73 42.89L4.90987 43.4622C6.30347 45.4597 8.29479 46.47 10.77 46.47V45.47V44.47C8.92522 44.47 7.55653 43.7603 6.55013 42.3178L5.73 42.89ZM10.77 45.47V46.47C11.8817 46.47 12.9288 46.2254 13.8959 45.73L13.44 44.84L12.9841 43.95C12.3112 44.2946 11.5783 44.47 10.77 44.47V45.47ZM13.44 44.84L13.8872 45.7344C14.9028 45.2267 15.7063 44.4704 16.283 43.4852L15.42 42.98L14.557 42.4748C14.1737 43.1296 13.6572 43.6133 12.9928 43.9456L13.44 44.84Z" fill="black" mask="url(#path-11-outside-6_728_123)"/>
<mask id="path-13-outside-7_728_123" maskUnits="userSpaceOnUse" x="23" y="26" width="19" height="23" fill="black">
<rect fill="white" x="23" y="26" width="19" height="23"/>
<path d="M25.13 45.38L25.19 40.07V34.07C25.19 31.25 25.12 28.93 24.98 27.11C25.32 27.05 25.73 27.02 26.21 27.02C27.19 27.02 27.68 27.4 27.68 28.16C27.68 28.26 27.66 28.66 27.62 29.36C27.5 31.5 27.44 33.47 27.44 35.27C28.4 35.31 29.99 35.33 32.21 35.33C34.45 35.33 36.05 35.31 37.01 35.27V33.74C36.99 30.86 36.92 28.65 36.8 27.11C37.14 27.05 37.55 27.02 38.03 27.02C39.01 27.02 39.5 27.4 39.5 28.16C39.5 28.28 39.48 28.68 39.44 29.36C39.32 31.44 39.26 33.28 39.26 34.88V40.91C39.26 43.61 39.45 45.59 39.83 46.85C39.47 47.01 39 47.09 38.42 47.09C37.84 47.09 37.45 46.96 37.25 46.7C37.05 46.44 36.95 46 36.95 45.38C36.95 45.38 36.97 43.61 37.01 40.07V37.04C35.99 37.08 34.38 37.1 32.18 37.1C29.98 37.1 28.4 37.08 27.44 37.04V40.91C27.44 43.61 27.63 45.59 28.01 46.85C27.65 47.01 27.18 47.09 26.6 47.09C26.02 47.09 25.63 46.96 25.43 46.7C25.23 46.44 25.13 46 25.13 45.38Z"/>
</mask>
<path d="M25.13 45.38L25.19 40.07V34.07C25.19 31.25 25.12 28.93 24.98 27.11C25.32 27.05 25.73 27.02 26.21 27.02C27.19 27.02 27.68 27.4 27.68 28.16C27.68 28.26 27.66 28.66 27.62 29.36C27.5 31.5 27.44 33.47 27.44 35.27C28.4 35.31 29.99 35.33 32.21 35.33C34.45 35.33 36.05 35.31 37.01 35.27V33.74C36.99 30.86 36.92 28.65 36.8 27.11C37.14 27.05 37.55 27.02 38.03 27.02C39.01 27.02 39.5 27.4 39.5 28.16C39.5 28.28 39.48 28.68 39.44 29.36C39.32 31.44 39.26 33.28 39.26 34.88V40.91C39.26 43.61 39.45 45.59 39.83 46.85C39.47 47.01 39 47.09 38.42 47.09C37.84 47.09 37.45 46.96 37.25 46.7C37.05 46.44 36.95 46 36.95 45.38C36.95 45.38 36.97 43.61 37.01 40.07V37.04C35.99 37.08 34.38 37.1 32.18 37.1C29.98 37.1 28.4 37.08 27.44 37.04V40.91C27.44 43.61 27.63 45.59 28.01 46.85C27.65 47.01 27.18 47.09 26.6 47.09C26.02 47.09 25.63 46.96 25.43 46.7C25.23 46.44 25.13 46 25.13 45.38Z" fill="#059669"/>
<path d="M25.13 45.38L24.13 45.3687V45.38H25.13ZM25.19 40.07L26.19 40.0813V40.07H25.19ZM24.98 27.11L24.8062 26.1252L23.9134 26.2828L23.9829 27.1867L24.98 27.11ZM27.62 29.36L26.6216 29.303L26.6216 29.304L27.62 29.36ZM27.44 35.27H26.44V36.2292L27.3984 36.2691L27.44 35.27ZM37.01 35.27L37.0516 36.2691L38.01 36.2292V35.27H37.01ZM37.01 33.74L38.01 33.74L38.01 33.7331L37.01 33.74ZM36.8 27.11L36.6262 26.1252L35.7325 26.2829L35.803 27.1877L36.8 27.11ZM39.44 29.36L38.4417 29.3013L38.4417 29.3024L39.44 29.36ZM39.83 46.85L40.2361 47.7638L41.0421 47.4056L40.7874 46.5613L39.83 46.85ZM37.25 46.7L36.4574 47.3097L36.4574 47.3097L37.25 46.7ZM36.95 45.38L35.95 45.3687V45.38H36.95ZM37.01 40.07L38.01 40.0813V40.07H37.01ZM37.01 37.04H38.01V36L36.9708 36.0408L37.01 37.04ZM27.44 37.04L27.4816 36.0409L26.44 35.9975V37.04H27.44ZM28.01 46.85L28.4161 47.7638L29.2221 47.4056L28.9674 46.5613L28.01 46.85ZM25.43 46.7L24.6374 47.3097L24.6374 47.3097L25.43 46.7ZM25.13 45.38L26.1299 45.3913L26.1899 40.0813L25.19 40.07L24.1901 40.0587L24.1301 45.3687L25.13 45.38ZM25.19 40.07H26.19V34.07H25.19H24.19V40.07H25.19ZM25.19 34.07H26.19C26.19 31.2366 26.1198 28.8886 25.9771 27.0333L24.98 27.11L23.9829 27.1867C24.1202 28.9714 24.19 31.2634 24.19 34.07H25.19ZM24.98 27.11L25.1538 28.0948C25.4191 28.048 25.7676 28.02 26.21 28.02V27.02V26.02C25.6924 26.02 25.2209 26.052 24.8062 26.1252L24.98 27.11ZM26.21 27.02V28.02C26.3936 28.02 26.5205 28.0381 26.6028 28.0594C26.6837 28.0803 26.7059 28.1 26.6997 28.0952C26.6883 28.0864 26.675 28.0691 26.6694 28.0561C26.6664 28.0492 26.68 28.076 26.68 28.16H27.68H28.68C28.68 27.5483 28.4698 26.9371 27.9253 26.5148C27.4291 26.1299 26.8015 26.02 26.21 26.02V27.02ZM27.68 28.16H26.68C26.68 28.1585 26.68 28.1647 26.6795 28.183C26.679 28.1998 26.6782 28.2224 26.677 28.2513C26.6747 28.3091 26.6712 28.3867 26.6662 28.4851C26.6564 28.6816 26.6416 28.9539 26.6216 29.303L27.62 29.36L28.6184 29.417C28.6572 28.7373 28.68 28.2969 28.68 28.16H27.68ZM27.62 29.36L26.6216 29.304C26.5007 31.4593 26.44 33.4482 26.44 35.27H27.44H28.44C28.44 33.4918 28.4993 31.5407 28.6184 29.416L27.62 29.36ZM27.44 35.27L27.3984 36.2691C28.381 36.3101 29.9893 36.33 32.21 36.33V35.33V34.33C29.9907 34.33 28.419 34.3099 27.4816 34.2709L27.44 35.27ZM32.21 35.33V36.33C34.4506 36.33 36.0689 36.3101 37.0516 36.2691L37.01 35.27L36.9684 34.2709C36.0311 34.3099 34.4494 34.33 32.21 34.33V35.33ZM37.01 35.27H38.01V33.74H37.01H36.01V35.27H37.01ZM37.01 33.74L38.01 33.7331C37.9899 30.8459 37.9198 28.6079 37.797 27.0323L36.8 27.11L35.803 27.1877C35.9202 28.6921 35.9901 30.8741 36.01 33.7469L37.01 33.74ZM36.8 27.11L36.9738 28.0948C37.2391 28.048 37.5876 28.02 38.03 28.02V27.02V26.02C37.5124 26.02 37.0409 26.052 36.6262 26.1252L36.8 27.11ZM38.03 27.02V28.02C38.2136 28.02 38.3405 28.0381 38.4228 28.0594C38.5037 28.0803 38.5259 28.1 38.5197 28.0952C38.5083 28.0864 38.495 28.0691 38.4894 28.0561C38.4864 28.0492 38.5 28.076 38.5 28.16H39.5H40.5C40.5 27.5483 40.2898 26.9371 39.7453 26.5148C39.2491 26.1299 38.6215 26.02 38.03 26.02V27.02ZM39.5 28.16H38.5C38.5 28.2426 38.4828 28.6038 38.4417 29.3013L39.44 29.36L40.4383 29.4187C40.4772 28.7562 40.5 28.3174 40.5 28.16H39.5ZM39.44 29.36L38.4417 29.3024C38.3209 31.3962 38.26 33.2561 38.26 34.88H39.26H40.26C40.26 33.3039 40.3191 31.4838 40.4383 29.4176L39.44 29.36ZM39.26 34.88H38.26V40.91H39.26H40.26V34.88H39.26ZM39.26 40.91H38.26C38.26 43.6276 38.448 45.7309 38.8726 47.1387L39.83 46.85L40.7874 46.5613C40.452 45.4491 40.26 43.5924 40.26 40.91H39.26ZM39.83 46.85L39.4239 45.9362C39.2374 46.0191 38.9206 46.09 38.42 46.09V47.09V48.09C39.0794 48.09 39.7026 48.0009 40.2361 47.7638L39.83 46.85ZM38.42 47.09V46.09C38.197 46.09 38.0694 46.064 38.0087 46.0438C37.9548 46.0258 37.9936 46.0265 38.0426 46.0903L37.25 46.7L36.4574 47.3097C36.9524 47.9533 37.7585 48.09 38.42 48.09V47.09ZM37.25 46.7L38.0426 46.0903C38.0574 46.1095 38.0294 46.0822 38.0001 45.9534C37.9715 45.8274 37.95 45.641 37.95 45.38H36.95H35.95C35.95 46.0513 36.0472 46.7765 36.4574 47.3097L37.25 46.7ZM36.95 45.38C37.9499 45.3913 37.9499 45.3913 37.9499 45.3913C37.9499 45.3913 37.9499 45.3912 37.9499 45.3912C37.9499 45.3912 37.9499 45.3912 37.9499 45.3911C37.9499 45.3911 37.9499 45.391 37.9499 45.391C37.9499 45.3909 37.9499 45.3909 37.9499 45.3908C37.9499 45.3907 37.9499 45.3907 37.9499 45.3906C37.9499 45.3905 37.9499 45.3904 37.9499 45.3903C37.9499 45.3902 37.95 45.3901 37.95 45.39C37.95 45.3899 37.95 45.3898 37.95 45.3897C37.95 45.3895 37.95 45.3894 37.95 45.3893C37.95 45.3891 37.95 45.389 37.95 45.3888C37.95 45.3887 37.95 45.3885 37.95 45.3884C37.95 45.3882 37.95 45.3881 37.95 45.3879C37.95 45.3877 37.95 45.3875 37.95 45.3873C37.95 45.3871 37.95 45.3869 37.95 45.3867C37.95 45.3865 37.95 45.3863 37.95 45.3861C37.95 45.3859 37.95 45.3857 37.95 45.3854C37.95 45.3852 37.95 45.385 37.95 45.3847C37.95 45.3845 37.95 45.3842 37.95 45.384C37.95 45.3837 37.95 45.3835 37.95 45.3832C37.95 45.3829 37.95 45.3826 37.95 45.3824C37.95 45.3821 37.95 45.3818 37.95 45.3815C37.9501 45.3812 37.9501 45.3809 37.9501 45.3806C37.9501 45.3803 37.9501 45.38 37.9501 45.3796C37.9501 45.3793 37.9501 45.379 37.9501 45.3786C37.9501 45.3783 37.9501 45.378 37.9501 45.3776C37.9501 45.3773 37.9501 45.3769 37.9501 45.3765C37.9501 45.3762 37.9501 45.3758 37.9501 45.3754C37.9501 45.375 37.9501 45.3747 37.9501 45.3743C37.9501 45.3739 37.9501 45.3735 37.9501 45.3731C37.9501 45.3727 37.9502 45.3723 37.9502 45.3718C37.9502 45.3714 37.9502 45.371 37.9502 45.3706C37.9502 45.3701 37.9502 45.3697 37.9502 45.3692C37.9502 45.3688 37.9502 45.3683 37.9502 45.3679C37.9502 45.3674 37.9502 45.367 37.9502 45.3665C37.9502 45.366 37.9502 45.3655 37.9502 45.365C37.9502 45.3646 37.9502 45.3641 37.9503 45.3636C37.9503 45.3631 37.9503 45.3626 37.9503 45.362C37.9503 45.3615 37.9503 45.361 37.9503 45.3605C37.9503 45.36 37.9503 45.3594 37.9503 45.3589C37.9503 45.3583 37.9503 45.3578 37.9503 45.3572C37.9503 45.3567 37.9503 45.3561 37.9503 45.3556C37.9503 45.355 37.9504 45.3544 37.9504 45.3538C37.9504 45.3533 37.9504 45.3527 37.9504 45.3521C37.9504 45.3515 37.9504 45.3509 37.9504 45.3503C37.9504 45.3497 37.9504 45.3491 37.9504 45.3484C37.9504 45.3478 37.9504 45.3472 37.9504 45.3466C37.9504 45.3459 37.9505 45.3453 37.9505 45.3446C37.9505 45.344 37.9505 45.3433 37.9505 45.3427C37.9505 45.342 37.9505 45.3413 37.9505 45.3407C37.9505 45.34 37.9505 45.3393 37.9505 45.3386C37.9505 45.3379 37.9505 45.3372 37.9506 45.3365C37.9506 45.3358 37.9506 45.3351 37.9506 45.3344C37.9506 45.3337 37.9506 45.333 37.9506 45.3322C37.9506 45.3315 37.9506 45.3308 37.9506 45.33C37.9506 45.3293 37.9506 45.3285 37.9507 45.3278C37.9507 45.327 37.9507 45.3263 37.9507 45.3255C37.9507 45.3247 37.9507 45.3239 37.9507 45.3232C37.9507 45.3224 37.9507 45.3216 37.9507 45.3208C37.9507 45.32 37.9508 45.3192 37.9508 45.3184C37.9508 45.3176 37.9508 45.3167 37.9508 45.3159C37.9508 45.3151 37.9508 45.3143 37.9508 45.3134C37.9508 45.3126 37.9508 45.3118 37.9508 45.3109C37.9509 45.3101 37.9509 45.3092 37.9509 45.3083C37.9509 45.3075 37.9509 45.3066 37.9509 45.3057C37.9509 45.3048 37.9509 45.304 37.9509 45.3031C37.9509 45.3022 37.951 45.3013 37.951 45.3004C37.951 45.2995 37.951 45.2986 37.951 45.2976C37.951 45.2967 37.951 45.2958 37.951 45.2949C37.951 45.2939 37.951 45.293 37.9511 45.292C37.9511 45.2911 37.9511 45.2901 37.9511 45.2892C37.9511 45.2882 37.9511 45.2873 37.9511 45.2863C37.9511 45.2853 37.9511 45.2843 37.9512 45.2834C37.9512 45.2824 37.9512 45.2814 37.9512 45.2804C37.9512 45.2794 37.9512 45.2784 37.9512 45.2774C37.9512 45.2763 37.9512 45.2753 37.9513 45.2743C37.9513 45.2733 37.9513 45.2722 37.9513 45.2712C37.9513 45.2702 37.9513 45.2691 37.9513 45.2681C37.9513 45.267 37.9514 45.2659 37.9514 45.2649C37.9514 45.2638 37.9514 45.2627 37.9514 45.2617C37.9514 45.2606 37.9514 45.2595 37.9514 45.2584C37.9515 45.2573 37.9515 45.2562 37.9515 45.2551C37.9515 45.254 37.9515 45.2529 37.9515 45.2518C37.9515 45.2506 37.9515 45.2495 37.9516 45.2484C37.9516 45.2472 37.9516 45.2461 37.9516 45.2449C37.9516 45.2438 37.9516 45.2426 37.9516 45.2415C37.9516 45.2403 37.9517 45.2392 37.9517 45.238C37.9517 45.2368 37.9517 45.2356 37.9517 45.2344C37.9517 45.2332 37.9517 45.2321 37.9518 45.2309C37.9518 45.2296 37.9518 45.2284 37.9518 45.2272C37.9518 45.226 37.9518 45.2248 37.9518 45.2236C37.9518 45.2223 37.9519 45.2211 37.9519 45.2199C37.9519 45.2186 37.9519 45.2174 37.9519 45.2161C37.9519 45.2148 37.9519 45.2136 37.952 45.2123C37.952 45.211 37.952 45.2098 37.952 45.2085C37.952 45.2072 37.952 45.2059 37.952 45.2046C37.9521 45.2033 37.9521 45.202 37.9521 45.2007C37.9521 45.1994 37.9521 45.1981 37.9521 45.1968C37.9522 45.1954 37.9522 45.1941 37.9522 45.1928C37.9522 45.1914 37.9522 45.1901 37.9522 45.1887C37.9522 45.1874 37.9523 45.186 37.9523 45.1847C37.9523 45.1833 37.9523 45.1819 37.9523 45.1806C37.9523 45.1792 37.9523 45.1778 37.9524 45.1764C37.9524 45.175 37.9524 45.1736 37.9524 45.1722C37.9524 45.1708 37.9524 45.1694 37.9525 45.168C37.9525 45.1666 37.9525 45.1651 37.9525 45.1637C37.9525 45.1623 37.9525 45.1608 37.9526 45.1594C37.9526 45.1579 37.9526 45.1565 37.9526 45.155C37.9526 45.1536 37.9526 45.1521 37.9527 45.1506C37.9527 45.1492 37.9527 45.1477 37.9527 45.1462C37.9527 45.1447 37.9527 45.1432 37.9528 45.1417C37.9528 45.1402 37.9528 45.1387 37.9528 45.1372C37.9528 45.1357 37.9528 45.1342 37.9529 45.1326C37.9529 45.1311 37.9529 45.1296 37.9529 45.1281C37.9529 45.1265 37.9529 45.125 37.953 45.1234C37.953 45.1219 37.953 45.1203 37.953 45.1187C37.953 45.1172 37.9531 45.1156 37.9531 45.114C37.9531 45.1124 37.9531 45.1108 37.9531 45.1093C37.9531 45.1077 37.9532 45.1061 37.9532 45.1045C37.9532 45.1028 37.9532 45.1012 37.9532 45.0996C37.9533 45.098 37.9533 45.0964 37.9533 45.0947C37.9533 45.0931 37.9533 45.0915 37.9533 45.0898C37.9534 45.0882 37.9534 45.0865 37.9534 45.0848C37.9534 45.0832 37.9534 45.0815 37.9535 45.0798C37.9535 45.0782 37.9535 45.0765 37.9535 45.0748C37.9535 45.0731 37.9536 45.0714 37.9536 45.0697C37.9536 45.068 37.9536 45.0663 37.9536 45.0646C37.9536 45.0629 37.9537 45.0612 37.9537 45.0594C37.9537 45.0577 37.9537 45.056 37.9537 45.0542C37.9538 45.0525 37.9538 45.0507 37.9538 45.049C37.9538 45.0472 37.9538 45.0455 37.9539 45.0437C37.9539 45.0419 37.9539 45.0401 37.9539 45.0384C37.9539 45.0366 37.954 45.0348 37.954 45.033C37.954 45.0312 37.954 45.0294 37.954 45.0276C37.9541 45.0258 37.9541 45.024 37.9541 45.0221C37.9541 45.0203 37.9541 45.0185 37.9542 45.0166C37.9542 45.0148 37.9542 45.013 37.9542 45.0111C37.9543 45.0093 37.9543 45.0074 37.9543 45.0055C37.9543 45.0037 37.9543 45.0018 37.9544 44.9999C37.9544 44.9981 37.9544 44.9962 37.9544 44.9943C37.9544 44.9924 37.9545 44.9905 37.9545 44.9886C37.9545 44.9867 37.9545 44.9848 37.9546 44.9829C37.9546 44.9809 37.9546 44.979 37.9546 44.9771C37.9546 44.9752 37.9547 44.9732 37.9547 44.9713C37.9547 44.9693 37.9547 44.9674 37.9547 44.9654C37.9548 44.9635 37.9548 44.9615 37.9548 44.9595C37.9548 44.9575 37.9549 44.9556 37.9549 44.9536C37.9549 44.9516 37.9549 44.9496 37.955 44.9476C37.955 44.9456 37.955 44.9436 37.955 44.9416C37.955 44.9396 37.9551 44.9376 37.9551 44.9355C37.9551 44.9335 37.9551 44.9315 37.9552 44.9294C37.9552 44.9274 37.9552 44.9254 37.9552 44.9233C37.9552 44.9213 37.9553 44.9192 37.9553 44.9171C37.9553 44.9151 37.9553 44.913 37.9554 44.9109C37.9554 44.9088 37.9554 44.9067 37.9554 44.9046C37.9555 44.9026 37.9555 44.9005 37.9555 44.8983C37.9555 44.8962 37.9556 44.8941 37.9556 44.892C37.9556 44.8899 37.9556 44.8878 37.9557 44.8856C37.9557 44.8835 37.9557 44.8814 37.9557 44.8792C37.9557 44.8771 37.9558 44.8749 37.9558 44.8727C37.9558 44.8706 37.9558 44.8684 37.9559 44.8662C37.9559 44.8641 37.9559 44.8619 37.9559 44.8597C37.956 44.8575 37.956 44.8553 37.956 44.8531C37.956 44.8509 37.9561 44.8487 37.9561 44.8465C37.9561 44.8443 37.9561 44.8421 37.9562 44.8398C37.9562 44.8376 37.9562 44.8354 37.9562 44.8331C37.9563 44.8309 37.9563 44.8286 37.9563 44.8264C37.9563 44.8241 37.9564 44.8219 37.9564 44.8196C37.9564 44.8173 37.9564 44.815 37.9565 44.8128C37.9565 44.8105 37.9565 44.8082 37.9566 44.8059C37.9566 44.8036 37.9566 44.8013 37.9566 44.799C37.9567 44.7967 37.9567 44.7944 37.9567 44.792C37.9567 44.7897 37.9568 44.7874 37.9568 44.7851C37.9568 44.7827 37.9568 44.7804 37.9569 44.778C37.9569 44.7757 37.9569 44.7733 37.9569 44.771C37.957 44.7686 37.957 44.7662 37.957 44.7638C37.9571 44.7615 37.9571 44.7591 37.9571 44.7567C37.9571 44.7543 37.9572 44.7519 37.9572 44.7495C37.9572 44.7471 37.9572 44.7447 37.9573 44.7423C37.9573 44.7399 37.9573 44.7374 37.9574 44.735C37.9574 44.7326 37.9574 44.7301 37.9574 44.7277C37.9575 44.7252 37.9575 44.7228 37.9575 44.7203C37.9575 44.7179 37.9576 44.7154 37.9576 44.7129C37.9576 44.7105 37.9577 44.708 37.9577 44.7055C37.9577 44.703 37.9577 44.7005 37.9578 44.698C37.9578 44.6955 37.9578 44.693 37.9579 44.6905C37.9579 44.688 37.9579 44.6855 37.9579 44.683C37.958 44.6804 37.958 44.6779 37.958 44.6754C37.9581 44.6728 37.9581 44.6703 37.9581 44.6677C37.9581 44.6652 37.9582 44.6626 37.9582 44.6601C37.9582 44.6575 37.9583 44.6549 37.9583 44.6523C37.9583 44.6498 37.9583 44.6472 37.9584 44.6446C37.9584 44.642 37.9584 44.6394 37.9585 44.6368C37.9585 44.6342 37.9585 44.6316 37.9586 44.6289C37.9586 44.6263 37.9586 44.6237 37.9586 44.6211C37.9587 44.6184 37.9587 44.6158 37.9587 44.6131C37.9588 44.6105 37.9588 44.6078 37.9588 44.6052C37.9588 44.6025 37.9589 44.5999 37.9589 44.5972C37.9589 44.5945 37.959 44.5918 37.959 44.5891C37.959 44.5865 37.9591 44.5838 37.9591 44.5811C37.9591 44.5784 37.9592 44.5756 37.9592 44.5729C37.9592 44.5702 37.9592 44.5675 37.9593 44.5648C37.9593 44.562 37.9593 44.5593 37.9594 44.5566C37.9594 44.5538 37.9594 44.5511 37.9595 44.5483C37.9595 44.5456 37.9595 44.5428 37.9596 44.54C37.9596 44.5373 37.9596 44.5345 37.9596 44.5317C37.9597 44.5289 37.9597 44.5261 37.9597 44.5233C37.9598 44.5206 37.9598 44.5177 37.9598 44.5149C37.9599 44.5121 37.9599 44.5093 37.9599 44.5065C37.96 44.5037 37.96 44.5008 37.96 44.498C37.9601 44.4952 37.9601 44.4923 37.9601 44.4895C37.9602 44.4866 37.9602 44.4838 37.9602 44.4809C37.9603 44.478 37.9603 44.4752 37.9603 44.4723C37.9604 44.4694 37.9604 44.4665 37.9604 44.4637C37.9605 44.4608 37.9605 44.4579 37.9605 44.455C37.9605 44.4521 37.9606 44.4491 37.9606 44.4462C37.9606 44.4433 37.9607 44.4404 37.9607 44.4375C37.9607 44.4345 37.9608 44.4316 37.9608 44.4287C37.9608 44.4257 37.9609 44.4228 37.9609 44.4198C37.9609 44.4168 37.961 44.4139 37.961 44.4109C37.961 44.4079 37.9611 44.405 37.9611 44.402C37.9611 44.399 37.9612 44.396 37.9612 44.393C37.9613 44.39 37.9613 44.387 37.9613 44.384C37.9614 44.381 37.9614 44.378 37.9614 44.3749C37.9615 44.3719 37.9615 44.3689 37.9615 44.3658C37.9616 44.3628 37.9616 44.3598 37.9616 44.3567C37.9617 44.3536 37.9617 44.3506 37.9617 44.3475C37.9618 44.3445 37.9618 44.3414 37.9618 44.3383C37.9619 44.3352 37.9619 44.3321 37.9619 44.3291C37.962 44.326 37.962 44.3229 37.962 44.3198C37.9621 44.3166 37.9621 44.3135 37.9622 44.3104C37.9622 44.3073 37.9622 44.3042 37.9623 44.301C37.9623 44.2979 37.9623 44.2948 37.9624 44.2916C37.9624 44.2885 37.9624 44.2853 37.9625 44.2822C37.9625 44.279 37.9625 44.2758 37.9626 44.2727C37.9626 44.2695 37.9626 44.2663 37.9627 44.2631C37.9627 44.2599 37.9628 44.2567 37.9628 44.2535C37.9628 44.2503 37.9629 44.2471 37.9629 44.2439C37.9629 44.2407 37.963 44.2375 37.963 44.2343C37.963 44.231 37.9631 44.2278 37.9631 44.2246C37.9632 44.2213 37.9632 44.2181 37.9632 44.2148C37.9633 44.2116 37.9633 44.2083 37.9633 44.205C37.9634 44.2018 37.9634 44.1985 37.9635 44.1952C37.9635 44.1919 37.9635 44.1886 37.9636 44.1853C37.9636 44.182 37.9636 44.1787 37.9637 44.1754C37.9637 44.1721 37.9638 44.1688 37.9638 44.1655C37.9638 44.1622 37.9639 44.1588 37.9639 44.1555C37.9639 44.1522 37.964 44.1488 37.964 44.1455C37.9641 44.1421 37.9641 44.1388 37.9641 44.1354C37.9642 44.132 37.9642 44.1287 37.9642 44.1253C37.9643 44.1219 37.9643 44.1185 37.9644 44.1151C37.9644 44.1118 37.9644 44.1084 37.9645 44.105C37.9645 44.1016 37.9645 44.0981 37.9646 44.0947C37.9646 44.0913 37.9647 44.0879 37.9647 44.0845C37.9647 44.081 37.9648 44.0776 37.9648 44.0741C37.9649 44.0707 37.9649 44.0673 37.9649 44.0638C37.965 44.0603 37.965 44.0569 37.9651 44.0534C37.9651 44.0499 37.9651 44.0465 37.9652 44.043C37.9652 44.0395 37.9653 44.036 37.9653 44.0325C37.9653 44.029 37.9654 44.0255 37.9654 44.022C37.9654 44.0185 37.9655 44.015 37.9655 44.0114C37.9656 44.0079 37.9656 44.0044 37.9656 44.0008C37.9657 43.9973 37.9657 43.9938 37.9658 43.9902C37.9658 43.9867 37.9658 43.9831 37.9659 43.9795C37.9659 43.976 37.966 43.9724 37.966 43.9688C37.9661 43.9652 37.9661 43.9617 37.9661 43.9581C37.9662 43.9545 37.9662 43.9509 37.9663 43.9473C37.9663 43.9437 37.9663 43.94 37.9664 43.9364C37.9664 43.9328 37.9665 43.9292 37.9665 43.9256C37.9665 43.9219 37.9666 43.9183 37.9666 43.9146C37.9667 43.911 37.9667 43.9073 37.9667 43.9037C37.9668 43.9 37.9668 43.8963 37.9669 43.8927C37.9669 43.889 37.967 43.8853 37.967 43.8816C37.967 43.8779 37.9671 43.8743 37.9671 43.8706C37.9672 43.8669 37.9672 43.8631 37.9672 43.8594C37.9673 43.8557 37.9673 43.852 37.9674 43.8483C37.9674 43.8445 37.9675 43.8408 37.9675 43.8371C37.9675 43.8333 37.9676 43.8296 37.9676 43.8258C37.9677 43.8221 37.9677 43.8183 37.9678 43.8145C37.9678 43.8108 37.9678 43.807 37.9679 43.8032C37.9679 43.7994 37.968 43.7957 37.968 43.7919C37.9681 43.7881 37.9681 43.7843 37.9681 43.7805C37.9682 43.7766 37.9682 43.7728 37.9683 43.769C37.9683 43.7652 37.9684 43.7614 37.9684 43.7575C37.9684 43.7537 37.9685 43.7499 37.9685 43.746C37.9686 43.7422 37.9686 43.7383 37.9687 43.7344C37.9687 43.7306 37.9687 43.7267 37.9688 43.7228C37.9688 43.719 37.9689 43.7151 37.9689 43.7112C37.969 43.7073 37.969 43.7034 37.9691 43.6995C37.9691 43.6956 37.9691 43.6917 37.9692 43.6878C37.9692 43.6838 37.9693 43.6799 37.9693 43.676C37.9694 43.6721 37.9694 43.6681 37.9695 43.6642C37.9695 43.6602 37.9695 43.6563 37.9696 43.6523C37.9696 43.6484 37.9697 43.6444 37.9697 43.6404C37.9698 43.6365 37.9698 43.6325 37.9699 43.6285C37.9699 43.6245 37.9699 43.6205 37.97 43.6165C37.97 43.6125 37.9701 43.6085 37.9701 43.6045C37.9702 43.6005 37.9702 43.5965 37.9703 43.5925C37.9703 43.5885 37.9704 43.5844 37.9704 43.5804C37.9704 43.5764 37.9705 43.5723 37.9705 43.5683C37.9706 43.5642 37.9706 43.5601 37.9707 43.5561C37.9707 43.552 37.9708 43.5479 37.9708 43.5439C37.9709 43.5398 37.9709 43.5357 37.971 43.5316C37.971 43.5275 37.971 43.5234 37.9711 43.5193C37.9711 43.5152 37.9712 43.5111 37.9712 43.507C37.9713 43.5029 37.9713 43.4987 37.9714 43.4946C37.9714 43.4905 37.9715 43.4863 37.9715 43.4822C37.9716 43.478 37.9716 43.4739 37.9716 43.4697C37.9717 43.4656 37.9717 43.4614 37.9718 43.4572C37.9718 43.4531 37.9719 43.4489 37.9719 43.4447C37.972 43.4405 37.972 43.4363 37.9721 43.4321C37.9721 43.4279 37.9722 43.4237 37.9722 43.4195C37.9723 43.4153 37.9723 43.4111 37.9724 43.4068C37.9724 43.4026 37.9725 43.3984 37.9725 43.3941C37.9726 43.3899 37.9726 43.3856 37.9726 43.3814C37.9727 43.3771 37.9727 43.3729 37.9728 43.3686C37.9728 43.3643 37.9729 43.3601 37.9729 43.3558C37.973 43.3515 37.973 43.3472 37.9731 43.3429C37.9731 43.3386 37.9732 43.3343 37.9732 43.33C37.9733 43.3257 37.9733 43.3214 37.9734 43.3171C37.9734 43.3128 37.9735 43.3084 37.9735 43.3041C37.9736 43.2998 37.9736 43.2954 37.9737 43.2911C37.9737 43.2867 37.9738 43.2824 37.9738 43.278C37.9739 43.2736 37.9739 43.2693 37.974 43.2649C37.974 43.2605 37.9741 43.2561 37.9741 43.2518C37.9742 43.2474 37.9742 43.243 37.9743 43.2386C37.9743 43.2342 37.9744 43.2298 37.9744 43.2253C37.9745 43.2209 37.9745 43.2165 37.9746 43.2121C37.9746 43.2076 37.9747 43.2032 37.9747 43.1988C37.9748 43.1943 37.9748 43.1899 37.9749 43.1854C37.9749 43.181 37.975 43.1765 37.975 43.172C37.9751 43.1676 37.9751 43.1631 37.9752 43.1586C37.9752 43.1541 37.9753 43.1496 37.9753 43.1451C37.9754 43.1406 37.9754 43.1361 37.9755 43.1316C37.9755 43.1271 37.9756 43.1226 37.9756 43.1181C37.9757 43.1135 37.9757 43.109 37.9758 43.1045C37.9758 43.0999 37.9759 43.0954 37.9759 43.0908C37.976 43.0863 37.976 43.0817 37.9761 43.0772C37.9761 43.0726 37.9762 43.068 37.9762 43.0635C37.9763 43.0589 37.9763 43.0543 37.9764 43.0497C37.9764 43.0451 37.9765 43.0405 37.9766 43.0359C37.9766 43.0313 37.9767 43.0267 37.9767 43.0221C37.9768 43.0175 37.9768 43.0128 37.9769 43.0082C37.9769 43.0036 37.977 42.9989 37.977 42.9943C37.9771 42.9896 37.9771 42.985 37.9772 42.9803C37.9772 42.9757 37.9773 42.971 37.9773 42.9663C37.9774 42.9617 37.9774 42.957 37.9775 42.9523C37.9775 42.9476 37.9776 42.9429 37.9777 42.9382C37.9777 42.9335 37.9778 42.9288 37.9778 42.9241C37.9779 42.9194 37.9779 42.9147 37.978 42.9099C37.978 42.9052 37.9781 42.9005 37.9781 42.8957C37.9782 42.891 37.9782 42.8862 37.9783 42.8815C37.9783 42.8767 37.9784 42.872 37.9785 42.8672C37.9785 42.8624 37.9786 42.8577 37.9786 42.8529C37.9787 42.8481 37.9787 42.8433 37.9788 42.8385C37.9788 42.8337 37.9789 42.8289 37.9789 42.8241C37.979 42.8193 37.9791 42.8145 37.9791 42.8097C37.9792 42.8049 37.9792 42.8 37.9793 42.7952C37.9793 42.7904 37.9794 42.7855 37.9794 42.7807C37.9795 42.7758 37.9795 42.771 37.9796 42.7661C37.9797 42.7613 37.9797 42.7564 37.9798 42.7515C37.9798 42.7466 37.9799 42.7418 37.9799 42.7369C37.98 42.732 37.98 42.7271 37.9801 42.7222C37.9802 42.7173 37.9802 42.7124 37.9803 42.7075C37.9803 42.7025 37.9804 42.6976 37.9804 42.6927C37.9805 42.6878 37.9805 42.6828 37.9806 42.6779C37.9807 42.6729 37.9807 42.668 37.9808 42.663C37.9808 42.6581 37.9809 42.6531 37.9809 42.6481C37.981 42.6432 37.981 42.6382 37.9811 42.6332C37.9812 42.6282 37.9812 42.6232 37.9813 42.6182C37.9813 42.6132 37.9814 42.6082 37.9814 42.6032C37.9815 42.5982 37.9816 42.5932 37.9816 42.5882C37.9817 42.5832 37.9817 42.5781 37.9818 42.5731C37.9818 42.5681 37.9819 42.563 37.982 42.558C37.982 42.5529 37.9821 42.5479 37.9821 42.5428C37.9822 42.5377 37.9822 42.5327 37.9823 42.5276C37.9824 42.5225 37.9824 42.5174 37.9825 42.5123C37.9825 42.5072 37.9826 42.5021 37.9826 42.497C37.9827 42.4919 37.9828 42.4868 37.9828 42.4817C37.9829 42.4766 37.9829 42.4715 37.983 42.4663C37.983 42.4612 37.9831 42.4561 37.9832 42.4509C37.9832 42.4458 37.9833 42.4406 37.9833 42.4355C37.9834 42.4303 37.9835 42.4251 37.9835 42.42C37.9836 42.4148 37.9836 42.4096 37.9837 42.4044C37.9837 42.3992 37.9838 42.394 37.9839 42.3888C37.9839 42.3836 37.984 42.3784 37.984 42.3732C37.9841 42.368 37.9842 42.3628 37.9842 42.3576C37.9843 42.3523 37.9843 42.3471 37.9844 42.3419C37.9845 42.3366 37.9845 42.3314 37.9846 42.3261C37.9846 42.3209 37.9847 42.3156 37.9847 42.3104C37.9848 42.3051 37.9849 42.2998 37.9849 42.2945C37.985 42.2893 37.985 42.284 37.9851 42.2787C37.9852 42.2734 37.9852 42.2681 37.9853 42.2628C37.9853 42.2575 37.9854 42.2522 37.9855 42.2468C37.9855 42.2415 37.9856 42.2362 37.9856 42.2308C37.9857 42.2255 37.9858 42.2202 37.9858 42.2148C37.9859 42.2095 37.9859 42.2041 37.986 42.1988C37.9861 42.1934 37.9861 42.188 37.9862 42.1827C37.9863 42.1773 37.9863 42.1719 37.9864 42.1665C37.9864 42.1611 37.9865 42.1557 37.9866 42.1503C37.9866 42.1449 37.9867 42.1395 37.9867 42.1341C37.9868 42.1287 37.9869 42.1233 37.9869 42.1178C37.987 42.1124 37.987 42.107 37.9871 42.1015C37.9872 42.0961 37.9872 42.0906 37.9873 42.0852C37.9874 42.0797 37.9874 42.0743 37.9875 42.0688C37.9875 42.0633 37.9876 42.0579 37.9877 42.0524C37.9877 42.0469 37.9878 42.0414 37.9879 42.0359C37.9879 42.0304 37.988 42.0249 37.988 42.0194C37.9881 42.0139 37.9882 42.0084 37.9882 42.0028C37.9883 41.9973 37.9883 41.9918 37.9884 41.9863C37.9885 41.9807 37.9885 41.9752 37.9886 41.9696C37.9887 41.9641 37.9887 41.9585 37.9888 41.953C37.9889 41.9474 37.9889 41.9418 37.989 41.9362C37.989 41.9307 37.9891 41.9251 37.9892 41.9195C37.9892 41.9139 37.9893 41.9083 37.9894 41.9027C37.9894 41.8971 37.9895 41.8915 37.9895 41.8859C37.9896 41.8803 37.9897 41.8746 37.9897 41.869C37.9898 41.8634 37.9899 41.8577 37.9899 41.8521C37.99 41.8464 37.9901 41.8408 37.9901 41.8351C37.9902 41.8295 37.9902 41.8238 37.9903 41.8181C37.9904 41.8125 37.9904 41.8068 37.9905 41.8011C37.9906 41.7954 37.9906 41.7897 37.9907 41.784C37.9908 41.7783 37.9908 41.7726 37.9909 41.7669C37.991 41.7612 37.991 41.7555 37.9911 41.7497C37.9911 41.744 37.9912 41.7383 37.9913 41.7326C37.9913 41.7268 37.9914 41.7211 37.9915 41.7153C37.9915 41.7096 37.9916 41.7038 37.9917 41.698C37.9917 41.6923 37.9918 41.6865 37.9919 41.6807C37.9919 41.6749 37.992 41.6691 37.9921 41.6634C37.9921 41.6576 37.9922 41.6518 37.9923 41.646C37.9923 41.6401 37.9924 41.6343 37.9925 41.6285C37.9925 41.6227 37.9926 41.6169 37.9927 41.611C37.9927 41.6052 37.9928 41.5994 37.9928 41.5935C37.9929 41.5877 37.993 41.5818 37.993 41.576C37.9931 41.5701 37.9932 41.5642 37.9932 41.5583C37.9933 41.5525 37.9934 41.5466 37.9934 41.5407C37.9935 41.5348 37.9936 41.5289 37.9936 41.523C37.9937 41.5171 37.9938 41.5112 37.9938 41.5053C37.9939 41.4994 37.994 41.4935 37.994 41.4875C37.9941 41.4816 37.9942 41.4757 37.9942 41.4697C37.9943 41.4638 37.9944 41.4578 37.9944 41.4519C37.9945 41.4459 37.9946 41.44 37.9947 41.434C37.9947 41.428 37.9948 41.4221 37.9949 41.4161C37.9949 41.4101 37.995 41.4041 37.9951 41.3981C37.9951 41.3921 37.9952 41.3861 37.9953 41.3801C37.9953 41.3741 37.9954 41.3681 37.9955 41.362C37.9955 41.356 37.9956 41.35 37.9957 41.344C37.9957 41.3379 37.9958 41.3319 37.9959 41.3258C37.9959 41.3198 37.996 41.3137 37.9961 41.3077C37.9961 41.3016 37.9962 41.2955 37.9963 41.2894C37.9964 41.2834 37.9964 41.2773 37.9965 41.2712C37.9966 41.2651 37.9966 41.259 37.9967 41.2529C37.9968 41.2468 37.9968 41.2407 37.9969 41.2346C37.997 41.2285 37.997 41.2223 37.9971 41.2162C37.9972 41.2101 37.9973 41.2039 37.9973 41.1978C37.9974 41.1916 37.9975 41.1855 37.9975 41.1793C37.9976 41.1732 37.9977 41.167 37.9977 41.1608C37.9978 41.1547 37.9979 41.1485 37.9979 41.1423C37.998 41.1361 37.9981 41.1299 37.9982 41.1237C37.9982 41.1175 37.9983 41.1113 37.9984 41.1051C37.9984 41.0989 37.9985 41.0927 37.9986 41.0865C37.9986 41.0802 37.9987 41.074 37.9988 41.0678C37.9989 41.0615 37.9989 41.0553 37.999 41.049C37.9991 41.0428 37.9991 41.0365 37.9992 41.0303C37.9993 41.024 37.9994 41.0177 37.9994 41.0114C37.9995 41.0052 37.9996 40.9989 37.9996 40.9926C37.9997 40.9863 37.9998 40.98 37.9999 40.9737C37.9999 40.9674 38 40.9611 38.0001 40.9547C38.0001 40.9484 38.0002 40.9421 38.0003 40.9358C38.0004 40.9294 38.0004 40.9231 38.0005 40.9167C38.0006 40.9104 38.0006 40.904 38.0007 40.8977C38.0008 40.8913 38.0009 40.885 38.0009 40.8786C38.001 40.8722 38.0011 40.8658 38.0011 40.8594C38.0012 40.853 38.0013 40.8467 38.0014 40.8403C38.0014 40.8339 38.0015 40.8274 38.0016 40.821C38.0017 40.8146 38.0017 40.8082 38.0018 40.8018C38.0019 40.7953 38.0019 40.7889 38.002 40.7825C38.0021 40.776 38.0022 40.7696 38.0022 40.7631C38.0023 40.7567 38.0024 40.7502 38.0025 40.7437C38.0025 40.7373 38.0026 40.7308 38.0027 40.7243C38.0027 40.7178 38.0028 40.7113 38.0029 40.7048C38.003 40.6983 38.003 40.6918 38.0031 40.6853C38.0032 40.6788 38.0033 40.6723 38.0033 40.6658C38.0034 40.6593 38.0035 40.6527 38.0036 40.6462C38.0036 40.6397 38.0037 40.6331 38.0038 40.6266C38.0038 40.62 38.0039 40.6135 38.004 40.6069C38.0041 40.6003 38.0041 40.5938 38.0042 40.5872C38.0043 40.5806 38.0044 40.574 38.0044 40.5674C38.0045 40.5609 38.0046 40.5543 38.0047 40.5477C38.0047 40.541 38.0048 40.5344 38.0049 40.5278C38.005 40.5212 38.005 40.5146 38.0051 40.508C38.0052 40.5013 38.0053 40.4947 38.0053 40.488C38.0054 40.4814 38.0055 40.4747 38.0056 40.4681C38.0056 40.4614 38.0057 40.4548 38.0058 40.4481C38.0059 40.4414 38.0059 40.4347 38.006 40.4281C38.0061 40.4214 38.0062 40.4147 38.0062 40.408C38.0063 40.4013 38.0064 40.3946 38.0065 40.3879C38.0065 40.3812 38.0066 40.3744 38.0067 40.3677C38.0068 40.361 38.0069 40.3543 38.0069 40.3475C38.007 40.3408 38.0071 40.334 38.0072 40.3273C38.0072 40.3205 38.0073 40.3138 38.0074 40.307C38.0075 40.3002 38.0075 40.2935 38.0076 40.2867C38.0077 40.2799 38.0078 40.2731 38.0078 40.2663C38.0079 40.2595 38.008 40.2527 38.0081 40.2459C38.0082 40.2391 38.0082 40.2323 38.0083 40.2255C38.0084 40.2187 38.0085 40.2119 38.0085 40.205C38.0086 40.1982 38.0087 40.1913 38.0088 40.1845C38.0088 40.1777 38.0089 40.1708 38.009 40.1639C38.0091 40.1571 38.0092 40.1502 38.0092 40.1433C38.0093 40.1365 38.0094 40.1296 38.0095 40.1227C38.0095 40.1158 38.0096 40.1089 38.0097 40.102C38.0098 40.0951 38.0099 40.0882 38.0099 40.0813L37.01 40.07L36.0101 40.0587C36.01 40.0656 36.0099 40.0725 36.0098 40.0794C36.0098 40.0863 36.0097 40.0932 36.0096 40.1001C36.0095 40.107 36.0094 40.1139 36.0094 40.1207C36.0093 40.1276 36.0092 40.1345 36.0091 40.1413C36.0091 40.1482 36.009 40.1551 36.0089 40.1619C36.0088 40.1688 36.0087 40.1756 36.0087 40.1824C36.0086 40.1893 36.0085 40.1961 36.0084 40.2029C36.0084 40.2097 36.0083 40.2165 36.0082 40.2233C36.0081 40.2301 36.0081 40.2369 36.008 40.2437C36.0079 40.2505 36.0078 40.2573 36.0077 40.2641C36.0077 40.2709 36.0076 40.2776 36.0075 40.2844C36.0074 40.2912 36.0074 40.2979 36.0073 40.3047C36.0072 40.3114 36.0071 40.3182 36.0071 40.3249C36.007 40.3317 36.0069 40.3384 36.0068 40.3451C36.0068 40.3518 36.0067 40.3586 36.0066 40.3653C36.0065 40.372 36.0064 40.3787 36.0064 40.3854C36.0063 40.3921 36.0062 40.3988 36.0061 40.4055C36.0061 40.4121 36.006 40.4188 36.0059 40.4255C36.0058 40.4322 36.0058 40.4388 36.0057 40.4455C36.0056 40.4521 36.0055 40.4588 36.0055 40.4654C36.0054 40.4721 36.0053 40.4787 36.0052 40.4854C36.0052 40.492 36.0051 40.4986 36.005 40.5052C36.0049 40.5118 36.0049 40.5185 36.0048 40.5251C36.0047 40.5317 36.0046 40.5383 36.0046 40.5448C36.0045 40.5514 36.0044 40.558 36.0043 40.5646C36.0043 40.5712 36.0042 40.5777 36.0041 40.5843C36.0041 40.5909 36.004 40.5974 36.0039 40.604C36.0038 40.6105 36.0038 40.6171 36.0037 40.6236C36.0036 40.6301 36.0035 40.6367 36.0035 40.6432C36.0034 40.6497 36.0033 40.6562 36.0032 40.6627C36.0032 40.6692 36.0031 40.6757 36.003 40.6822C36.0029 40.6887 36.0029 40.6952 36.0028 40.7017C36.0027 40.7082 36.0027 40.7147 36.0026 40.7211C36.0025 40.7276 36.0024 40.7341 36.0024 40.7405C36.0023 40.747 36.0022 40.7534 36.0021 40.7599C36.0021 40.7663 36.002 40.7727 36.0019 40.7792C36.0019 40.7856 36.0018 40.792 36.0017 40.7984C36.0016 40.8048 36.0016 40.8113 36.0015 40.8177C36.0014 40.8241 36.0013 40.8304 36.0013 40.8368C36.0012 40.8432 36.0011 40.8496 36.0011 40.856C36.001 40.8624 36.0009 40.8687 36.0008 40.8751C36.0008 40.8814 36.0007 40.8878 36.0006 40.8941C36.0006 40.9005 36.0005 40.9068 36.0004 40.9132C36.0003 40.9195 36.0003 40.9258 36.0002 40.9321C36.0001 40.9385 36.0001 40.9448 36 40.9511C35.9999 40.9574 35.9998 40.9637 35.9998 40.97C35.9997 40.9763 35.9996 40.9826 35.9996 40.9888C35.9995 40.9951 35.9994 41.0014 35.9993 41.0077C35.9993 41.0139 35.9992 41.0202 35.9991 41.0264C35.9991 41.0327 35.999 41.0389 35.9989 41.0452C35.9988 41.0514 35.9988 41.0576 35.9987 41.0639C35.9986 41.0701 35.9986 41.0763 35.9985 41.0825C35.9984 41.0887 35.9984 41.0949 35.9983 41.1011C35.9982 41.1073 35.9981 41.1135 35.9981 41.1197C35.998 41.1259 35.9979 41.1321 35.9979 41.1382C35.9978 41.1444 35.9977 41.1506 35.9977 41.1567C35.9976 41.1629 35.9975 41.169 35.9974 41.1752C35.9974 41.1813 35.9973 41.1875 35.9972 41.1936C35.9972 41.1997 35.9971 41.2059 35.997 41.212C35.997 41.2181 35.9969 41.2242 35.9968 41.2303C35.9968 41.2364 35.9967 41.2425 35.9966 41.2486C35.9966 41.2547 35.9965 41.2608 35.9964 41.2669C35.9963 41.2729 35.9963 41.279 35.9962 41.2851C35.9961 41.2911 35.9961 41.2972 35.996 41.3032C35.9959 41.3093 35.9959 41.3153 35.9958 41.3214C35.9957 41.3274 35.9957 41.3334 35.9956 41.3395C35.9955 41.3455 35.9955 41.3515 35.9954 41.3575C35.9953 41.3635 35.9953 41.3695 35.9952 41.3755C35.9951 41.3815 35.995 41.3875 35.995 41.3935C35.9949 41.3995 35.9948 41.4054 35.9948 41.4114C35.9947 41.4174 35.9946 41.4233 35.9946 41.4293C35.9945 41.4352 35.9944 41.4412 35.9944 41.4471C35.9943 41.4531 35.9942 41.459 35.9942 41.4649C35.9941 41.4709 35.994 41.4768 35.994 41.4827C35.9939 41.4886 35.9938 41.4945 35.9938 41.5004C35.9937 41.5063 35.9936 41.5122 35.9936 41.5181C35.9935 41.524 35.9934 41.5299 35.9934 41.5358C35.9933 41.5416 35.9932 41.5475 35.9932 41.5534C35.9931 41.5592 35.993 41.5651 35.993 41.5709C35.9929 41.5768 35.9928 41.5826 35.9928 41.5884C35.9927 41.5943 35.9926 41.6001 35.9926 41.6059C35.9925 41.6117 35.9925 41.6176 35.9924 41.6234C35.9923 41.6292 35.9923 41.635 35.9922 41.6408C35.9921 41.6466 35.9921 41.6523 35.992 41.6581C35.9919 41.6639 35.9919 41.6697 35.9918 41.6754C35.9917 41.6812 35.9917 41.687 35.9916 41.6927C35.9915 41.6985 35.9915 41.7042 35.9914 41.71C35.9913 41.7157 35.9913 41.7214 35.9912 41.7272C35.9911 41.7329 35.9911 41.7386 35.991 41.7443C35.991 41.75 35.9909 41.7557 35.9908 41.7614C35.9908 41.7671 35.9907 41.7728 35.9906 41.7785C35.9906 41.7842 35.9905 41.7899 35.9904 41.7955C35.9904 41.8012 35.9903 41.8069 35.9902 41.8125C35.9902 41.8182 35.9901 41.8238 35.9901 41.8295C35.99 41.8351 35.9899 41.8408 35.9899 41.8464C35.9898 41.852 35.9897 41.8577 35.9897 41.8633C35.9896 41.8689 35.9895 41.8745 35.9895 41.8801C35.9894 41.8857 35.9894 41.8913 35.9893 41.8969C35.9892 41.9025 35.9892 41.9081 35.9891 41.9136C35.989 41.9192 35.989 41.9248 35.9889 41.9304C35.9889 41.9359 35.9888 41.9415 35.9887 41.947C35.9887 41.9526 35.9886 41.9581 35.9885 41.9637C35.9885 41.9692 35.9884 41.9747 35.9884 41.9803C35.9883 41.9858 35.9882 41.9913 35.9882 41.9968C35.9881 42.0023 35.988 42.0078 35.988 42.0133C35.9879 42.0188 35.9879 42.0243 35.9878 42.0298C35.9877 42.0353 35.9877 42.0407 35.9876 42.0462C35.9875 42.0517 35.9875 42.0571 35.9874 42.0626C35.9874 42.068 35.9873 42.0735 35.9872 42.0789C35.9872 42.0844 35.9871 42.0898 35.9871 42.0952C35.987 42.1007 35.9869 42.1061 35.9869 42.1115C35.9868 42.1169 35.9867 42.1223 35.9867 42.1277C35.9866 42.1331 35.9866 42.1385 35.9865 42.1439C35.9864 42.1493 35.9864 42.1547 35.9863 42.1601C35.9863 42.1654 35.9862 42.1708 35.9861 42.1762C35.9861 42.1815 35.986 42.1869 35.986 42.1922C35.9859 42.1976 35.9858 42.2029 35.9858 42.2083C35.9857 42.2136 35.9857 42.2189 35.9856 42.2242C35.9855 42.2296 35.9855 42.2349 35.9854 42.2402C35.9854 42.2455 35.9853 42.2508 35.9852 42.2561C35.9852 42.2614 35.9851 42.2667 35.9851 42.2719C35.985 42.2772 35.9849 42.2825 35.9849 42.2878C35.9848 42.293 35.9848 42.2983 35.9847 42.3035C35.9846 42.3088 35.9846 42.314 35.9845 42.3193C35.9845 42.3245 35.9844 42.3297 35.9843 42.335C35.9843 42.3402 35.9842 42.3454 35.9842 42.3506C35.9841 42.3558 35.984 42.3611 35.984 42.3662C35.9839 42.3714 35.9839 42.3766 35.9838 42.3818C35.9838 42.387 35.9837 42.3922 35.9836 42.3974C35.9836 42.4025 35.9835 42.4077 35.9835 42.4129C35.9834 42.418 35.9833 42.4232 35.9833 42.4283C35.9832 42.4335 35.9832 42.4386 35.9831 42.4437C35.9831 42.4489 35.983 42.454 35.9829 42.4591C35.9829 42.4642 35.9828 42.4693 35.9828 42.4744C35.9827 42.4795 35.9827 42.4846 35.9826 42.4897C35.9825 42.4948 35.9825 42.4999 35.9824 42.505C35.9824 42.5101 35.9823 42.5151 35.9823 42.5202C35.9822 42.5253 35.9821 42.5303 35.9821 42.5354C35.982 42.5404 35.982 42.5455 35.9819 42.5505C35.9819 42.5555 35.9818 42.5606 35.9817 42.5656C35.9817 42.5706 35.9816 42.5756 35.9816 42.5806C35.9815 42.5856 35.9815 42.5907 35.9814 42.5956C35.9813 42.6006 35.9813 42.6056 35.9812 42.6106C35.9812 42.6156 35.9811 42.6206 35.9811 42.6255C35.981 42.6305 35.9809 42.6355 35.9809 42.6404C35.9808 42.6454 35.9808 42.6503 35.9807 42.6553C35.9807 42.6602 35.9806 42.6652 35.9806 42.6701C35.9805 42.675 35.9804 42.6799 35.9804 42.6849C35.9803 42.6898 35.9803 42.6947 35.9802 42.6996C35.9802 42.7045 35.9801 42.7094 35.9801 42.7143C35.98 42.7192 35.9799 42.724 35.9799 42.7289C35.9798 42.7338 35.9798 42.7387 35.9797 42.7435C35.9797 42.7484 35.9796 42.7532 35.9796 42.7581C35.9795 42.7629 35.9795 42.7678 35.9794 42.7726C35.9793 42.7774 35.9793 42.7823 35.9792 42.7871C35.9792 42.7919 35.9791 42.7967 35.9791 42.8015C35.979 42.8063 35.979 42.8111 35.9789 42.8159C35.9789 42.8207 35.9788 42.8255 35.9787 42.8303C35.9787 42.8351 35.9786 42.8398 35.9786 42.8446C35.9785 42.8494 35.9785 42.8541 35.9784 42.8589C35.9784 42.8637 35.9783 42.8684 35.9783 42.8731C35.9782 42.8779 35.9782 42.8826 35.9781 42.8873C35.978 42.8921 35.978 42.8968 35.9779 42.9015C35.9779 42.9062 35.9778 42.9109 35.9778 42.9156C35.9777 42.9203 35.9777 42.925 35.9776 42.9297C35.9776 42.9344 35.9775 42.9391 35.9775 42.9437C35.9774 42.9484 35.9774 42.9531 35.9773 42.9577C35.9773 42.9624 35.9772 42.967 35.9771 42.9717C35.9771 42.9763 35.977 42.981 35.977 42.9856C35.9769 42.9902 35.9769 42.9949 35.9768 42.9995C35.9768 43.0041 35.9767 43.0087 35.9767 43.0133C35.9766 43.0179 35.9766 43.0225 35.9765 43.0271C35.9765 43.0317 35.9764 43.0363 35.9764 43.0409C35.9763 43.0454 35.9763 43.05 35.9762 43.0546C35.9762 43.0591 35.9761 43.0637 35.9761 43.0682C35.976 43.0728 35.976 43.0773 35.9759 43.0819C35.9759 43.0864 35.9758 43.0909 35.9758 43.0955C35.9757 43.1 35.9756 43.1045 35.9756 43.109C35.9755 43.1135 35.9755 43.118 35.9754 43.1225C35.9754 43.127 35.9753 43.1315 35.9753 43.136C35.9752 43.1405 35.9752 43.145 35.9751 43.1494C35.9751 43.1539 35.975 43.1584 35.975 43.1628C35.9749 43.1673 35.9749 43.1717 35.9748 43.1762C35.9748 43.1806 35.9747 43.185 35.9747 43.1895C35.9746 43.1939 35.9746 43.1983 35.9745 43.2027C35.9745 43.2072 35.9744 43.2116 35.9744 43.216C35.9743 43.2204 35.9743 43.2248 35.9742 43.2292C35.9742 43.2335 35.9741 43.2379 35.9741 43.2423C35.974 43.2467 35.974 43.251 35.9739 43.2554C35.9739 43.2598 35.9738 43.2641 35.9738 43.2685C35.9737 43.2728 35.9737 43.2772 35.9736 43.2815C35.9736 43.2858 35.9736 43.2902 35.9735 43.2945C35.9735 43.2988 35.9734 43.3031 35.9734 43.3074C35.9733 43.3117 35.9733 43.316 35.9732 43.3203C35.9732 43.3246 35.9731 43.3289 35.9731 43.3332C35.973 43.3375 35.973 43.3417 35.9729 43.346C35.9729 43.3503 35.9728 43.3545 35.9728 43.3588C35.9727 43.363 35.9727 43.3673 35.9726 43.3715C35.9726 43.3758 35.9725 43.38 35.9725 43.3842C35.9724 43.3885 35.9724 43.3927 35.9723 43.3969C35.9723 43.4011 35.9722 43.4053 35.9722 43.4095C35.9722 43.4137 35.9721 43.4179 35.9721 43.4221C35.972 43.4263 35.972 43.4305 35.9719 43.4346C35.9719 43.4388 35.9718 43.443 35.9718 43.4471C35.9717 43.4513 35.9717 43.4554 35.9716 43.4596C35.9716 43.4637 35.9715 43.4679 35.9715 43.472C35.9714 43.4761 35.9714 43.4803 35.9714 43.4844C35.9713 43.4885 35.9713 43.4926 35.9712 43.4967C35.9712 43.5008 35.9711 43.5049 35.9711 43.509C35.971 43.5131 35.971 43.5172 35.9709 43.5213C35.9709 43.5253 35.9708 43.5294 35.9708 43.5335C35.9708 43.5375 35.9707 43.5416 35.9707 43.5457C35.9706 43.5497 35.9706 43.5538 35.9705 43.5578C35.9705 43.5618 35.9704 43.5659 35.9704 43.5699C35.9703 43.5739 35.9703 43.5779 35.9703 43.5819C35.9702 43.5859 35.9702 43.59 35.9701 43.5939C35.9701 43.5979 35.97 43.6019 35.97 43.6059C35.9699 43.6099 35.9699 43.6139 35.9698 43.6179C35.9698 43.6218 35.9698 43.6258 35.9697 43.6297C35.9697 43.6337 35.9696 43.6376 35.9696 43.6416C35.9695 43.6455 35.9695 43.6495 35.9694 43.6534C35.9694 43.6573 35.9694 43.6613 35.9693 43.6652C35.9693 43.6691 35.9692 43.673 35.9692 43.6769C35.9691 43.6808 35.9691 43.6847 35.969 43.6886C35.969 43.6925 35.969 43.6964 35.9689 43.7002C35.9689 43.7041 35.9688 43.708 35.9688 43.7118C35.9687 43.7157 35.9687 43.7196 35.9687 43.7234C35.9686 43.7273 35.9686 43.7311 35.9685 43.7349C35.9685 43.7388 35.9684 43.7426 35.9684 43.7464C35.9684 43.7502 35.9683 43.7541 35.9683 43.7579C35.9682 43.7617 35.9682 43.7655 35.9681 43.7693C35.9681 43.7731 35.9681 43.7768 35.968 43.7806C35.968 43.7844 35.9679 43.7882 35.9679 43.792C35.9678 43.7957 35.9678 43.7995 35.9678 43.8032C35.9677 43.807 35.9677 43.8107 35.9676 43.8145C35.9676 43.8182 35.9675 43.8219 35.9675 43.8257C35.9675 43.8294 35.9674 43.8331 35.9674 43.8368C35.9673 43.8406 35.9673 43.8443 35.9672 43.848C35.9672 43.8517 35.9672 43.8554 35.9671 43.859C35.9671 43.8627 35.967 43.8664 35.967 43.8701C35.967 43.8738 35.9669 43.8774 35.9669 43.8811C35.9668 43.8847 35.9668 43.8884 35.9668 43.892C35.9667 43.8957 35.9667 43.8993 35.9666 43.903C35.9666 43.9066 35.9665 43.9102 35.9665 43.9138C35.9665 43.9175 35.9664 43.9211 35.9664 43.9247C35.9663 43.9283 35.9663 43.9319 35.9663 43.9355C35.9662 43.9391 35.9662 43.9426 35.9661 43.9462C35.9661 43.9498 35.9661 43.9534 35.966 43.9569C35.966 43.9605 35.9659 43.9641 35.9659 43.9676C35.9659 43.9712 35.9658 43.9747 35.9658 43.9782C35.9657 43.9818 35.9657 43.9853 35.9657 43.9888C35.9656 43.9924 35.9656 43.9959 35.9655 43.9994C35.9655 44.0029 35.9655 44.0064 35.9654 44.0099C35.9654 44.0134 35.9653 44.0169 35.9653 44.0204C35.9653 44.0239 35.9652 44.0273 35.9652 44.0308C35.9651 44.0343 35.9651 44.0377 35.9651 44.0412C35.965 44.0447 35.965 44.0481 35.9649 44.0516C35.9649 44.055 35.9649 44.0584 35.9648 44.0619C35.9648 44.0653 35.9648 44.0687 35.9647 44.0721C35.9647 44.0755 35.9646 44.079 35.9646 44.0824C35.9646 44.0858 35.9645 44.0892 35.9645 44.0926C35.9644 44.0959 35.9644 44.0993 35.9644 44.1027C35.9643 44.1061 35.9643 44.1094 35.9643 44.1128C35.9642 44.1162 35.9642 44.1195 35.9641 44.1229C35.9641 44.1262 35.9641 44.1296 35.964 44.1329C35.964 44.1362 35.964 44.1396 35.9639 44.1429C35.9639 44.1462 35.9638 44.1495 35.9638 44.1528C35.9638 44.1561 35.9637 44.1594 35.9637 44.1627C35.9637 44.166 35.9636 44.1693 35.9636 44.1726C35.9635 44.1759 35.9635 44.1792 35.9635 44.1824C35.9634 44.1857 35.9634 44.189 35.9634 44.1922C35.9633 44.1955 35.9633 44.1987 35.9632 44.202C35.9632 44.2052 35.9632 44.2084 35.9631 44.2117C35.9631 44.2149 35.9631 44.2181 35.963 44.2213C35.963 44.2245 35.963 44.2277 35.9629 44.2309C35.9629 44.2341 35.9628 44.2373 35.9628 44.2405C35.9628 44.2437 35.9627 44.2469 35.9627 44.2501C35.9627 44.2532 35.9626 44.2564 35.9626 44.2596C35.9626 44.2627 35.9625 44.2659 35.9625 44.269C35.9625 44.2722 35.9624 44.2753 35.9624 44.2784C35.9623 44.2816 35.9623 44.2847 35.9623 44.2878C35.9622 44.2909 35.9622 44.2941 35.9622 44.2972C35.9621 44.3003 35.9621 44.3034 35.9621 44.3065C35.962 44.3095 35.962 44.3126 35.962 44.3157C35.9619 44.3188 35.9619 44.3219 35.9619 44.3249C35.9618 44.328 35.9618 44.3311 35.9618 44.3341C35.9617 44.3372 35.9617 44.3402 35.9617 44.3432C35.9616 44.3463 35.9616 44.3493 35.9615 44.3523C35.9615 44.3554 35.9615 44.3584 35.9614 44.3614C35.9614 44.3644 35.9614 44.3674 35.9613 44.3704C35.9613 44.3734 35.9613 44.3764 35.9612 44.3794C35.9612 44.3824 35.9612 44.3853 35.9611 44.3883C35.9611 44.3913 35.9611 44.3942 35.961 44.3972C35.961 44.4002 35.961 44.4031 35.9609 44.4061C35.9609 44.409 35.9609 44.4119 35.9608 44.4149C35.9608 44.4178 35.9608 44.4207 35.9607 44.4236C35.9607 44.4266 35.9607 44.4295 35.9606 44.4324C35.9606 44.4353 35.9606 44.4382 35.9605 44.4411C35.9605 44.4439 35.9605 44.4468 35.9604 44.4497C35.9604 44.4526 35.9604 44.4555 35.9604 44.4583C35.9603 44.4612 35.9603 44.464 35.9603 44.4669C35.9602 44.4697 35.9602 44.4726 35.9602 44.4754C35.9601 44.4782 35.9601 44.4811 35.9601 44.4839C35.96 44.4867 35.96 44.4895 35.96 44.4923C35.9599 44.4952 35.9599 44.498 35.9599 44.5008C35.9598 44.5035 35.9598 44.5063 35.9598 44.5091C35.9597 44.5119 35.9597 44.5147 35.9597 44.5174C35.9597 44.5202 35.9596 44.523 35.9596 44.5257C35.9596 44.5285 35.9595 44.5312 35.9595 44.534C35.9595 44.5367 35.9594 44.5394 35.9594 44.5422C35.9594 44.5449 35.9593 44.5476 35.9593 44.5503C35.9593 44.5531 35.9593 44.5558 35.9592 44.5585C35.9592 44.5612 35.9592 44.5639 35.9591 44.5665C35.9591 44.5692 35.9591 44.5719 35.959 44.5746C35.959 44.5773 35.959 44.5799 35.9589 44.5826C35.9589 44.5852 35.9589 44.5879 35.9589 44.5905C35.9588 44.5932 35.9588 44.5958 35.9588 44.5985C35.9587 44.6011 35.9587 44.6037 35.9587 44.6063C35.9586 44.609 35.9586 44.6116 35.9586 44.6142C35.9586 44.6168 35.9585 44.6194 35.9585 44.622C35.9585 44.6246 35.9584 44.6272 35.9584 44.6297C35.9584 44.6323 35.9584 44.6349 35.9583 44.6375C35.9583 44.64 35.9583 44.6426 35.9582 44.6451C35.9582 44.6477 35.9582 44.6502 35.9582 44.6528C35.9581 44.6553 35.9581 44.6578 35.9581 44.6604C35.958 44.6629 35.958 44.6654 35.958 44.6679C35.958 44.6704 35.9579 44.6729 35.9579 44.6754C35.9579 44.6779 35.9578 44.6804 35.9578 44.6829C35.9578 44.6854 35.9578 44.6879 35.9577 44.6903C35.9577 44.6928 35.9577 44.6953 35.9576 44.6977C35.9576 44.7002 35.9576 44.7026 35.9576 44.7051C35.9575 44.7075 35.9575 44.71 35.9575 44.7124C35.9575 44.7148 35.9574 44.7173 35.9574 44.7197C35.9574 44.7221 35.9573 44.7245 35.9573 44.7269C35.9573 44.7293 35.9573 44.7317 35.9572 44.7341C35.9572 44.7365 35.9572 44.7389 35.9572 44.7413C35.9571 44.7436 35.9571 44.746 35.9571 44.7484C35.957 44.7507 35.957 44.7531 35.957 44.7554C35.957 44.7578 35.9569 44.7601 35.9569 44.7625C35.9569 44.7648 35.9569 44.7671 35.9568 44.7694C35.9568 44.7718 35.9568 44.7741 35.9568 44.7764C35.9567 44.7787 35.9567 44.781 35.9567 44.7833C35.9567 44.7856 35.9566 44.7879 35.9566 44.7902C35.9566 44.7925 35.9566 44.7947 35.9565 44.797C35.9565 44.7993 35.9565 44.8015 35.9564 44.8038C35.9564 44.806 35.9564 44.8083 35.9564 44.8105C35.9563 44.8128 35.9563 44.815 35.9563 44.8172C35.9563 44.8195 35.9562 44.8217 35.9562 44.8239C35.9562 44.8261 35.9562 44.8283 35.9561 44.8305C35.9561 44.8327 35.9561 44.8349 35.9561 44.8371C35.956 44.8393 35.956 44.8415 35.956 44.8436C35.956 44.8458 35.9559 44.848 35.9559 44.8501C35.9559 44.8523 35.9559 44.8545 35.9559 44.8566C35.9558 44.8588 35.9558 44.8609 35.9558 44.863C35.9558 44.8652 35.9557 44.8673 35.9557 44.8694C35.9557 44.8715 35.9557 44.8736 35.9556 44.8758C35.9556 44.8779 35.9556 44.88 35.9556 44.882C35.9555 44.8841 35.9555 44.8862 35.9555 44.8883C35.9555 44.8904 35.9554 44.8925 35.9554 44.8945C35.9554 44.8966 35.9554 44.8987 35.9554 44.9007C35.9553 44.9028 35.9553 44.9048 35.9553 44.9068C35.9553 44.9089 35.9552 44.9109 35.9552 44.9129C35.9552 44.915 35.9552 44.917 35.9551 44.919C35.9551 44.921 35.9551 44.923 35.9551 44.925C35.9551 44.927 35.955 44.929 35.955 44.931C35.955 44.933 35.955 44.935 35.9549 44.9369C35.9549 44.9389 35.9549 44.9409 35.9549 44.9428C35.9549 44.9448 35.9548 44.9467 35.9548 44.9487C35.9548 44.9506 35.9548 44.9526 35.9547 44.9545C35.9547 44.9564 35.9547 44.9583 35.9547 44.9603C35.9547 44.9622 35.9546 44.9641 35.9546 44.966C35.9546 44.9679 35.9546 44.9698 35.9546 44.9717C35.9545 44.9736 35.9545 44.9755 35.9545 44.9773C35.9545 44.9792 35.9544 44.9811 35.9544 44.9829C35.9544 44.9848 35.9544 44.9867 35.9544 44.9885C35.9543 44.9904 35.9543 44.9922 35.9543 44.994C35.9543 44.9959 35.9543 44.9977 35.9542 44.9995C35.9542 45.0014 35.9542 45.0032 35.9542 45.005C35.9542 45.0068 35.9541 45.0086 35.9541 45.0104C35.9541 45.0122 35.9541 45.014 35.9541 45.0158C35.954 45.0175 35.954 45.0193 35.954 45.0211C35.954 45.0229 35.954 45.0246 35.9539 45.0264C35.9539 45.0281 35.9539 45.0299 35.9539 45.0316C35.9539 45.0334 35.9538 45.0351 35.9538 45.0368C35.9538 45.0386 35.9538 45.0403 35.9538 45.042C35.9537 45.0437 35.9537 45.0454 35.9537 45.0471C35.9537 45.0488 35.9537 45.0505 35.9536 45.0522C35.9536 45.0539 35.9536 45.0556 35.9536 45.0572C35.9536 45.0589 35.9535 45.0606 35.9535 45.0622C35.9535 45.0639 35.9535 45.0656 35.9535 45.0672C35.9535 45.0689 35.9534 45.0705 35.9534 45.0721C35.9534 45.0738 35.9534 45.0754 35.9534 45.077C35.9533 45.0786 35.9533 45.0802 35.9533 45.0819C35.9533 45.0835 35.9533 45.0851 35.9533 45.0867C35.9532 45.0882 35.9532 45.0898 35.9532 45.0914C35.9532 45.093 35.9532 45.0946 35.9531 45.0961C35.9531 45.0977 35.9531 45.0993 35.9531 45.1008C35.9531 45.1024 35.9531 45.1039 35.953 45.1055C35.953 45.107 35.953 45.1085 35.953 45.1101C35.953 45.1116 35.953 45.1131 35.9529 45.1146C35.9529 45.1161 35.9529 45.1176 35.9529 45.1191C35.9529 45.1206 35.9529 45.1221 35.9528 45.1236C35.9528 45.1251 35.9528 45.1266 35.9528 45.128C35.9528 45.1295 35.9528 45.131 35.9527 45.1324C35.9527 45.1339 35.9527 45.1353 35.9527 45.1368C35.9527 45.1382 35.9527 45.1397 35.9526 45.1411C35.9526 45.1425 35.9526 45.144 35.9526 45.1454C35.9526 45.1468 35.9526 45.1482 35.9525 45.1496C35.9525 45.151 35.9525 45.1524 35.9525 45.1538C35.9525 45.1552 35.9525 45.1566 35.9524 45.158C35.9524 45.1593 35.9524 45.1607 35.9524 45.1621C35.9524 45.1634 35.9524 45.1648 35.9524 45.1661C35.9523 45.1675 35.9523 45.1688 35.9523 45.1702C35.9523 45.1715 35.9523 45.1728 35.9523 45.1742C35.9522 45.1755 35.9522 45.1768 35.9522 45.1781C35.9522 45.1794 35.9522 45.1807 35.9522 45.182C35.9522 45.1833 35.9521 45.1846 35.9521 45.1859C35.9521 45.1872 35.9521 45.1884 35.9521 45.1897C35.9521 45.191 35.9521 45.1923 35.952 45.1935C35.952 45.1948 35.952 45.196 35.952 45.1973C35.952 45.1985 35.952 45.1997 35.952 45.201C35.9519 45.2022 35.9519 45.2034 35.9519 45.2046C35.9519 45.2058 35.9519 45.2071 35.9519 45.2083C35.9519 45.2095 35.9519 45.2107 35.9518 45.2118C35.9518 45.213 35.9518 45.2142 35.9518 45.2154C35.9518 45.2166 35.9518 45.2177 35.9518 45.2189C35.9517 45.22 35.9517 45.2212 35.9517 45.2224C35.9517 45.2235 35.9517 45.2246 35.9517 45.2258C35.9517 45.2269 35.9517 45.228 35.9516 45.2292C35.9516 45.2303 35.9516 45.2314 35.9516 45.2325C35.9516 45.2336 35.9516 45.2347 35.9516 45.2358C35.9516 45.2369 35.9515 45.238 35.9515 45.2391C35.9515 45.2401 35.9515 45.2412 35.9515 45.2423C35.9515 45.2434 35.9515 45.2444 35.9515 45.2455C35.9514 45.2465 35.9514 45.2476 35.9514 45.2486C35.9514 45.2496 35.9514 45.2507 35.9514 45.2517C35.9514 45.2527 35.9514 45.2537 35.9514 45.2548C35.9513 45.2558 35.9513 45.2568 35.9513 45.2578C35.9513 45.2588 35.9513 45.2598 35.9513 45.2608C35.9513 45.2617 35.9513 45.2627 35.9513 45.2637C35.9512 45.2647 35.9512 45.2656 35.9512 45.2666C35.9512 45.2675 35.9512 45.2685 35.9512 45.2694C35.9512 45.2704 35.9512 45.2713 35.9512 45.2723C35.9511 45.2732 35.9511 45.2741 35.9511 45.275C35.9511 45.276 35.9511 45.2769 35.9511 45.2778C35.9511 45.2787 35.9511 45.2796 35.9511 45.2805C35.9511 45.2814 35.951 45.2822 35.951 45.2831C35.951 45.284 35.951 45.2849 35.951 45.2857C35.951 45.2866 35.951 45.2875 35.951 45.2883C35.951 45.2892 35.951 45.29 35.9509 45.2908C35.9509 45.2917 35.9509 45.2925 35.9509 45.2933C35.9509 45.2942 35.9509 45.295 35.9509 45.2958C35.9509 45.2966 35.9509 45.2974 35.9509 45.2982C35.9509 45.299 35.9508 45.2998 35.9508 45.3006C35.9508 45.3013 35.9508 45.3021 35.9508 45.3029C35.9508 45.3037 35.9508 45.3044 35.9508 45.3052C35.9508 45.3059 35.9508 45.3067 35.9508 45.3074C35.9507 45.3082 35.9507 45.3089 35.9507 45.3096C35.9507 45.3104 35.9507 45.3111 35.9507 45.3118C35.9507 45.3125 35.9507 45.3132 35.9507 45.3139C35.9507 45.3146 35.9507 45.3153 35.9507 45.316C35.9507 45.3167 35.9506 45.3174 35.9506 45.3181C35.9506 45.3187 35.9506 45.3194 35.9506 45.3201C35.9506 45.3207 35.9506 45.3214 35.9506 45.322C35.9506 45.3227 35.9506 45.3233 35.9506 45.324C35.9506 45.3246 35.9506 45.3252 35.9505 45.3258C35.9505 45.3265 35.9505 45.3271 35.9505 45.3277C35.9505 45.3283 35.9505 45.3289 35.9505 45.3295C35.9505 45.3301 35.9505 45.3307 35.9505 45.3312C35.9505 45.3318 35.9505 45.3324 35.9505 45.333C35.9505 45.3335 35.9505 45.3341 35.9504 45.3347C35.9504 45.3352 35.9504 45.3358 35.9504 45.3363C35.9504 45.3368 35.9504 45.3374 35.9504 45.3379C35.9504 45.3384 35.9504 45.3389 35.9504 45.3395C35.9504 45.34 35.9504 45.3405 35.9504 45.341C35.9504 45.3415 35.9504 45.342 35.9504 45.3424C35.9504 45.3429 35.9504 45.3434 35.9503 45.3439C35.9503 45.3444 35.9503 45.3448 35.9503 45.3453C35.9503 45.3457 35.9503 45.3462 35.9503 45.3466C35.9503 45.3471 35.9503 45.3475 35.9503 45.348C35.9503 45.3484 35.9503 45.3488 35.9503 45.3492C35.9503 45.3497 35.9503 45.3501 35.9503 45.3505C35.9503 45.3509 35.9503 45.3513 35.9503 45.3517C35.9503 45.3521 35.9502 45.3524 35.9502 45.3528C35.9502 45.3532 35.9502 45.3536 35.9502 45.3539C35.9502 45.3543 35.9502 45.3547 35.9502 45.355C35.9502 45.3554 35.9502 45.3557 35.9502 45.356C35.9502 45.3564 35.9502 45.3567 35.9502 45.357C35.9502 45.3574 35.9502 45.3577 35.9502 45.358C35.9502 45.3583 35.9502 45.3586 35.9502 45.3589C35.9502 45.3592 35.9502 45.3595 35.9502 45.3598C35.9502 45.3601 35.9502 45.3603 35.9502 45.3606C35.9502 45.3609 35.9502 45.3611 35.9501 45.3614C35.9501 45.3616 35.9501 45.3619 35.9501 45.3621C35.9501 45.3624 35.9501 45.3626 35.9501 45.3628C35.9501 45.3631 35.9501 45.3633 35.9501 45.3635C35.9501 45.3637 35.9501 45.3639 35.9501 45.3641C35.9501 45.3643 35.9501 45.3645 35.9501 45.3647C35.9501 45.3649 35.9501 45.3651 35.9501 45.3653C35.9501 45.3655 35.9501 45.3656 35.9501 45.3658C35.9501 45.3659 35.9501 45.3661 35.9501 45.3663C35.9501 45.3664 35.9501 45.3665 35.9501 45.3667C35.9501 45.3668 35.9501 45.3669 35.9501 45.3671C35.9501 45.3672 35.9501 45.3673 35.9501 45.3674C35.9501 45.3675 35.9501 45.3676 35.9501 45.3677C35.9501 45.3678 35.9501 45.3679 35.9501 45.368C35.9501 45.3681 35.9501 45.3681 35.9501 45.3682C35.9501 45.3683 35.9501 45.3683 35.9501 45.3684C35.9501 45.3684 35.9501 45.3685 35.9501 45.3685C35.9501 45.3686 35.9501 45.3686 35.9501 45.3686C35.9501 45.3686 35.9501 45.3687 35.9501 45.3687C35.9501 45.3687 35.9501 45.3687 36.95 45.38ZM37.01 40.07H38.01V37.04H37.01H36.01V40.07H37.01ZM37.01 37.04L36.9708 36.0408C35.9717 36.0799 34.3783 36.1 32.18 36.1V37.1V38.1C34.3817 38.1 36.0083 38.08 37.0492 38.0392L37.01 37.04ZM32.18 37.1V36.1C29.9809 36.1 28.419 36.0799 27.4816 36.0409L27.44 37.04L27.3984 38.0391C28.381 38.0801 29.9791 38.1 32.18 38.1V37.1ZM27.44 37.04H26.44V40.91H27.44H28.44V37.04H27.44ZM27.44 40.91H26.44C26.44 43.6276 26.628 45.7309 27.0526 47.1387L28.01 46.85L28.9674 46.5613C28.632 45.4491 28.44 43.5924 28.44 40.91H27.44ZM28.01 46.85L27.6039 45.9362C27.4174 46.0191 27.1006 46.09 26.6 46.09V47.09V48.09C27.2594 48.09 27.8826 48.0009 28.4161 47.7638L28.01 46.85ZM26.6 47.09V46.09C26.377 46.09 26.2494 46.064 26.1887 46.0438C26.1348 46.0258 26.1736 46.0265 26.2226 46.0903L25.43 46.7L24.6374 47.3097C25.1324 47.9533 25.9385 48.09 26.6 48.09V47.09ZM25.43 46.7L26.2226 46.0903C26.2374 46.1095 26.2094 46.0822 26.1801 45.9534C26.1515 45.8274 26.13 45.641 26.13 45.38H25.13H24.13C24.13 46.0513 24.2272 46.7765 24.6374 47.3097L25.43 46.7Z" fill="#059669" mask="url(#path-13-outside-7_728_123)"/>
<mask id="path-15-outside-8_728_123" maskUnits="userSpaceOnUse" x="64" y="26" width="15" height="23" fill="black">
<rect fill="white" x="64" y="26" width="15" height="23"/>
<path d="M66.34 45.38L66.4 40.07V34.28C66.4 31.42 66.26 29.09 65.98 27.29C68.12 27.11 70.46 27.02 73 27.02C75.56 27.02 77.02 27.17 77.38 27.47C77.56 27.63 77.65 27.92 77.65 28.34C77.65 28.76 77.57 29.17 77.41 29.57C76.27 29.15 74.41 28.94 71.83 28.94C70.77 28.94 69.67 28.97 68.53 29.03C68.61 29.91 68.65 31.1 68.65 32.6V35.69H71.02C72.68 35.69 73.88 35.65 74.62 35.57C74.7 35.73 74.74 36.05 74.74 36.53C74.74 36.99 74.58 37.28 74.26 37.4C73.94 37.52 73.2 37.58 72.04 37.58H68.65V40.91C68.65 43.61 68.84 45.59 69.22 46.85C68.86 47.01 68.39 47.09 67.81 47.09C67.23 47.09 66.84 46.96 66.64 46.7C66.44 46.44 66.34 46 66.34 45.38Z"/>
</mask>
<path d="M66.34 45.38L66.4 40.07V34.28C66.4 31.42 66.26 29.09 65.98 27.29C68.12 27.11 70.46 27.02 73 27.02C75.56 27.02 77.02 27.17 77.38 27.47C77.56 27.63 77.65 27.92 77.65 28.34C77.65 28.76 77.57 29.17 77.41 29.57C76.27 29.15 74.41 28.94 71.83 28.94C70.77 28.94 69.67 28.97 68.53 29.03C68.61 29.91 68.65 31.1 68.65 32.6V35.69H71.02C72.68 35.69 73.88 35.65 74.62 35.57C74.7 35.73 74.74 36.05 74.74 36.53C74.74 36.99 74.58 37.28 74.26 37.4C73.94 37.52 73.2 37.58 72.04 37.58H68.65V40.91C68.65 43.61 68.84 45.59 69.22 46.85C68.86 47.01 68.39 47.09 67.81 47.09C67.23 47.09 66.84 46.96 66.64 46.7C66.44 46.44 66.34 46 66.34 45.38Z" fill="#059669"/>
<path d="M66.34 45.38L65.34 45.3687V45.38H66.34ZM66.4 40.07L67.4 40.0813V40.07H66.4ZM65.98 27.29L65.8962 26.2935L64.827 26.3835L64.9919 27.4437L65.98 27.29ZM77.38 27.47L78.0444 26.7226L78.0324 26.712L78.0202 26.7018L77.38 27.47ZM77.41 29.57L77.0643 30.5083L77.9772 30.8447L78.3385 29.9414L77.41 29.57ZM68.53 29.03L68.4774 28.0314L67.4401 28.086L67.5341 29.1205L68.53 29.03ZM68.65 35.69H67.65V36.69H68.65V35.69ZM74.62 35.57L75.5144 35.1228L75.2036 34.5011L74.5125 34.5758L74.62 35.57ZM74.26 37.4L73.9089 36.4637L73.9089 36.4637L74.26 37.4ZM68.65 37.58V36.58H67.65V37.58H68.65ZM69.22 46.85L69.6261 47.7638L70.4321 47.4056L70.1774 46.5613L69.22 46.85ZM66.64 46.7L67.4326 46.0903L67.4326 46.0903L66.64 46.7ZM66.34 45.38L67.3399 45.3913L67.3999 40.0813L66.4 40.07L65.4001 40.0587L65.3401 45.3687L66.34 45.38ZM66.4 40.07H67.4V34.28H66.4H65.4V40.07H66.4ZM66.4 34.28H67.4C67.4 31.394 67.2592 29.0073 66.9681 27.1363L65.98 27.29L64.9919 27.4437C65.2608 29.1727 65.4 31.446 65.4 34.28H66.4ZM65.98 27.29L66.0638 28.2865C68.1715 28.1092 70.4831 28.02 73 28.02V27.02V26.02C70.4369 26.02 68.0685 26.1108 65.8962 26.2935L65.98 27.29ZM73 27.02V28.02C74.2669 28.02 75.2327 28.0574 75.9128 28.1273C76.2542 28.1623 76.4994 28.2033 76.6637 28.2439C76.8627 28.2931 76.8332 28.316 76.7398 28.2382L77.38 27.47L78.0202 26.7018C77.7468 26.474 77.3998 26.3657 77.1438 26.3024C76.8531 26.2305 76.5058 26.1777 76.1172 26.1377C75.3373 26.0576 74.2931 26.02 73 26.02V27.02ZM77.38 27.47L76.7156 28.2174C76.6382 28.1485 76.6225 28.088 76.6274 28.1039C76.6299 28.1119 76.6359 28.1343 76.6411 28.1751C76.6462 28.2158 76.65 28.27 76.65 28.34H77.65H78.65C78.65 27.8349 78.552 27.1739 78.0444 26.7226L77.38 27.47ZM77.65 28.34H76.65C76.65 28.6295 76.5955 28.9136 76.4815 29.1986L77.41 29.57L78.3385 29.9414C78.5445 29.4264 78.65 28.8905 78.65 28.34H77.65ZM77.41 29.57L77.7557 28.6317C76.4383 28.1463 74.4257 27.94 71.83 27.94V28.94V29.94C74.3943 29.94 76.1017 30.1537 77.0643 30.5083L77.41 29.57ZM71.83 28.94V27.94C70.7512 27.94 69.6336 27.9705 68.4774 28.0314L68.53 29.03L68.5826 30.0286C69.7064 29.9695 70.7888 29.94 71.83 29.94V28.94ZM68.53 29.03L67.5341 29.1205C67.6101 29.9569 67.65 31.1125 67.65 32.6H68.65H69.65C69.65 31.0875 69.6099 29.8631 69.5259 28.9395L68.53 29.03ZM68.65 32.6H67.65V35.69H68.65H69.65V32.6H68.65ZM68.65 35.69V36.69H71.02V35.69V34.69H68.65V35.69ZM71.02 35.69V36.69C72.6833 36.69 73.9297 36.6505 74.7275 36.5642L74.62 35.57L74.5125 34.5758C73.8303 34.6495 72.6767 34.69 71.02 34.69V35.69ZM74.62 35.57L73.7256 36.0172C73.7032 35.9725 73.6989 35.9485 73.7024 35.9625C73.7052 35.9739 73.7113 36.0027 73.7177 36.054C73.7308 36.1583 73.74 36.3135 73.74 36.53H74.74H75.74C75.74 36.2665 75.7292 36.0217 75.7023 35.806C75.6776 35.6087 75.6305 35.355 75.5144 35.1228L74.62 35.57ZM74.74 36.53H73.74C73.74 36.6534 73.7172 36.6587 73.7444 36.6094C73.7596 36.5819 73.7846 36.5484 73.8205 36.5178C73.856 36.4874 73.889 36.4711 73.9089 36.4637L74.26 37.4L74.6111 38.3363C74.9866 38.1955 75.2964 37.9365 75.4956 37.5756C75.6828 37.2363 75.74 36.8666 75.74 36.53H74.74ZM74.26 37.4L73.9089 36.4637C73.9121 36.4625 73.8749 36.4757 73.7738 36.4929C73.6785 36.5091 73.5502 36.5248 73.3842 36.5383C73.0516 36.5652 72.6062 36.58 72.04 36.58V37.58V38.58C72.6338 38.58 73.1384 38.5648 73.5458 38.5317C73.9262 38.5009 74.3112 38.4488 74.6111 38.3363L74.26 37.4ZM72.04 37.58V36.58H68.65V37.58V38.58H72.04V37.58ZM68.65 37.58H67.65V40.91H68.65H69.65V37.58H68.65ZM68.65 40.91H67.65C67.65 43.6276 67.838 45.7309 68.2626 47.1387L69.22 46.85L70.1774 46.5613C69.842 45.4491 69.65 43.5924 69.65 40.91H68.65ZM69.22 46.85L68.8139 45.9362C68.6274 46.0191 68.3106 46.09 67.81 46.09V47.09V48.09C68.4694 48.09 69.0926 48.0009 69.6261 47.7638L69.22 46.85ZM67.81 47.09V46.09C67.587 46.09 67.4594 46.064 67.3987 46.0438C67.3448 46.0258 67.3836 46.0265 67.4326 46.0903L66.64 46.7L65.8474 47.3097C66.3424 47.9533 67.1485 48.09 67.81 48.09V47.09ZM66.64 46.7L67.4326 46.0903C67.4474 46.1095 67.4194 46.0822 67.3901 45.9534C67.3615 45.8274 67.34 45.641 67.34 45.38H66.34H65.34C65.34 46.0513 65.4372 46.7765 65.8474 47.3097L66.64 46.7Z" fill="#059669" mask="url(#path-15-outside-8_728_123)"/>
</svg>
