<svg width="41" height="41" viewBox="0 0 41 41" fill="none" xmlns="http://www.w3.org/2000/svg">
<g clip-path="url(#clip0_366_38)">
<path d="M38.9039 13.1902C38.1028 12.267 37.1128 11.5267 36.0007 11.0195C34.8887 10.5122 33.6806 10.2499 32.4583 10.2501H25.6438L26.2178 6.76341C26.4209 5.53556 26.1759 4.27562 25.5274 3.21339C24.8789 2.15115 23.8702 1.35741 22.6853 0.976927C21.5004 0.596445 20.2181 0.65458 19.0725 1.14073C17.9268 1.62688 16.9941 2.50864 16.4444 3.6252L13.1747 10.2501H8.54167C6.27711 10.2528 4.10608 11.1536 2.50479 12.7549C0.903507 14.3562 0.00271259 16.5272 0 18.7918L0 27.3334C0.00271259 29.598 0.903507 31.769 2.50479 33.3703C4.10608 34.9716 6.27711 35.8724 8.54167 35.8751H31.2625C33.3184 35.8667 35.303 35.1206 36.8552 33.7724C38.4075 32.4243 39.4242 30.5638 39.7205 28.5293L40.9248 19.9876C41.0944 18.776 41.0018 17.542 40.6531 16.3692C40.3044 15.1965 39.7079 14.1123 38.9039 13.1902ZM3.41667 27.3334V18.7918C3.41667 17.4325 3.95662 16.129 4.91775 15.1679C5.87887 14.2067 7.18243 13.6668 8.54167 13.6668H11.9583V32.4584H8.54167C7.18243 32.4584 5.87887 31.9185 4.91775 30.9574C3.95662 29.9962 3.41667 28.6927 3.41667 27.3334ZM37.5338 19.5076L36.3277 28.0492C36.1514 29.269 35.5431 30.3849 34.6136 31.1941C33.684 32.0032 32.4949 32.4519 31.2625 32.4584H15.375V13.2124C15.536 13.0721 15.6693 12.9029 15.7679 12.7135L19.5075 5.13707C19.6477 4.88412 19.846 4.66805 20.0859 4.50663C20.3259 4.34521 20.6008 4.24304 20.888 4.20852C21.1751 4.174 21.4664 4.20812 21.7378 4.30807C22.0092 4.40801 22.253 4.57094 22.4492 4.78345C22.6171 4.97862 22.7398 5.20843 22.8086 5.45648C22.8774 5.70453 22.8906 5.9647 22.8473 6.21845L21.9453 11.6851C21.9057 11.9294 21.9196 12.1793 21.9861 12.4177C22.0526 12.656 22.1701 12.877 22.3305 13.0655C22.4908 13.254 22.6902 13.4053 22.9148 13.5092C23.1394 13.613 23.3839 13.6668 23.6314 13.6668H32.4583C33.1919 13.6667 33.9169 13.8241 34.5844 14.1283C35.2519 14.4325 35.8464 14.8765 36.3275 15.4302C36.8087 15.9839 37.1654 16.6345 37.3735 17.3379C37.5816 18.0413 37.6363 18.7812 37.5338 19.5076Z" fill="#C5C5C5"/>
</g>
<defs>
<clipPath id="clip0_366_38">
<rect width="41" height="41" fill="white"/>
</clipPath>
</defs>
</svg>
