<svg width="92" height="90" viewBox="0 0 92 90" fill="none" xmlns="http://www.w3.org/2000/svg">
<path d="M46 0.5C71.1394 0.5 91.5 20.4336 91.5 45C91.5 69.5664 71.1394 89.5 46 89.5C20.8606 89.5 0.5 69.5664 0.5 45C0.5 20.4336 20.8606 0.5 46 0.5Z" fill="white" stroke="#D5D5D5"/>
<g clip-path="url(#clip0_116_289)">
<path d="M46.1123 47.4999C48.3868 47.4999 50.6102 46.8401 52.5014 45.6039C54.3926 44.3677 55.8666 42.6107 56.737 40.5551C57.6074 38.4994 57.8351 36.2374 57.3914 34.0551C56.9476 31.8728 55.8524 29.8683 54.2441 28.2949C52.6358 26.7216 50.5867 25.6501 48.3559 25.216C46.1251 24.782 43.8128 25.0047 41.7115 25.8562C39.6101 26.7077 37.8141 28.1497 36.5504 29.9997C35.2868 31.8498 34.6123 34.0248 34.6123 36.2499C34.6154 39.2327 35.828 42.0924 37.984 44.2015C40.14 46.3107 43.0633 47.4969 46.1123 47.4999ZM46.1123 28.7499C47.6287 28.7499 49.1109 29.1897 50.3717 30.0139C51.6325 30.838 52.6152 32.0093 53.1954 33.3798C53.7757 34.7502 53.9275 36.2582 53.6317 37.7131C53.3359 39.1679 52.6057 40.5043 51.5335 41.5532C50.4613 42.6021 49.0952 43.3164 47.608 43.6058C46.1209 43.8952 44.5793 43.7466 43.1784 43.179C41.7775 42.6113 40.5802 41.65 39.7377 40.4167C38.8953 39.1833 38.4457 37.7332 38.4457 36.2499C38.4457 34.2608 39.2534 32.3531 40.6912 30.9466C42.129 29.5401 44.079 28.7499 46.1123 28.7499Z" fill="#969696"/>
<path d="M46 48.25C41.4266 48.255 37.0419 50.0345 33.808 53.1981C30.5741 56.3617 28.7551 60.651 28.75 65.125C28.75 65.6223 28.9519 66.0992 29.3114 66.4508C29.6708 66.8025 30.1583 67 30.6667 67C31.175 67 31.6625 66.8025 32.022 66.4508C32.3814 66.0992 32.5833 65.6223 32.5833 65.125C32.5833 61.644 33.9969 58.3056 36.513 55.8442C39.0291 53.3828 42.4417 52 46 52C49.5583 52 52.9709 53.3828 55.487 55.8442C58.0031 58.3056 59.4167 61.644 59.4167 65.125C59.4167 65.6223 59.6186 66.0992 59.978 66.4508C60.3375 66.8025 60.825 67 61.3333 67C61.8417 67 62.3292 66.8025 62.6886 66.4508C63.0481 66.0992 63.25 65.6223 63.25 65.125C63.2449 60.651 61.4259 56.3617 58.192 53.1981C54.9581 50.0345 50.5734 48.255 46 48.25Z" fill="#969696"/>
</g>
<defs>
<clipPath id="clip0_116_289">
<rect width="46" height="45" fill="white" transform="translate(23 22)"/>
</clipPath>
</defs>
</svg>
