<svg width="46" height="47" viewBox="0 0 46 47" fill="none" xmlns="http://www.w3.org/2000/svg">
<g clip-path="url(#clip0_126_304)">
<path d="M39.2917 0.5H8.62504C5.98387 0.5 3.83337 2.64858 3.83337 5.29167V41.7083C3.83337 44.3514 5.98387 46.5 8.62504 46.5H42.1667V3.375C42.1667 1.78992 40.8768 0.5 39.2917 0.5ZM8.62504 2.41667H39.2917C39.8207 2.41667 40.25 2.84792 40.25 3.375V36.9167H8.62504C7.54212 36.9167 6.55312 37.2904 5.75004 37.8999V5.29167C5.75004 3.70658 7.03996 2.41667 8.62504 2.41667ZM8.62504 44.5833C7.03996 44.5833 5.75004 43.2934 5.75004 41.7083C5.75004 40.1232 7.03996 38.8333 8.62504 38.8333H40.25V44.5833H8.62504ZM15.3334 19.5708V29.25H30.6667V19.5708C32.8517 19.1262 34.5 17.1884 34.5 14.875C34.5 12.2319 32.3495 10.0833 29.7084 10.0833C28.5239 10.0833 27.3892 10.528 26.519 11.3081C24.5104 9.73642 21.4897 9.73642 19.481 11.3081C18.6109 10.5299 17.4762 10.0833 16.2917 10.0833C13.6505 10.0833 11.5 12.2319 11.5 14.875C11.5 17.1884 13.1484 19.1262 15.3334 19.5708ZM16.2917 12C17.2213 12 18.0991 12.4581 18.6396 13.2267L19.3392 14.2176L20.1404 13.3091C21.6315 11.6205 24.3666 11.6205 25.8578 13.3091L26.659 14.2176L27.3585 13.2267C27.899 12.46 28.7769 12 29.7065 12C31.2915 12 32.5815 13.2899 32.5815 14.875C32.5815 16.4601 31.2915 17.75 29.7065 17.75H28.7481V27.3333H17.2481V17.75H16.2898C14.7047 17.75 13.4148 16.4601 13.4148 14.875C13.4148 13.2899 14.7047 12 16.2898 12H16.2917Z" fill="black"/>
</g>
<defs>
<clipPath id="clip0_126_304">
<rect width="46" height="46" fill="white" transform="translate(0 0.5)"/>
</clipPath>
</defs>
</svg>
