<svg width="34" height="43" viewBox="0 0 34 43" fill="none" xmlns="http://www.w3.org/2000/svg">
<path d="M33.4824 1.42138C33.137 0.890518 32.6718 0.502298 32.0879 0.256026C31.716 0.0857071 31.3263 0.000398175 30.9189 0.000398175L3.08109 0C2.67387 0 2.28451 0.085309 1.91255 0.255628C1.32828 0.5017 0.863285 0.890419 0.518027 1.42099C0.172862 1.95155 0 2.53866 0 3.18301V39.817C0 40.4615 0.172862 41.0484 0.518027 41.5795C0.863285 42.11 1.32828 42.4986 1.91255 42.7446C2.28414 42.9149 2.67387 43 3.08109 43C3.91367 43 4.6482 42.6872 5.28587 42.0625L17.0001 30.0115L28.7143 42.0628C29.3342 42.6681 30.0691 42.9713 30.9188 42.9713C31.3617 42.9713 31.7513 42.8961 32.0878 42.7445C32.6717 42.4985 33.1369 42.1099 33.4823 41.5787C33.8275 41.0483 34 40.4613 34 39.8169V3.18341C34.0001 2.53906 33.8272 1.95195 33.4824 1.42138ZM30.6002 38.9354L19.3642 27.3968L17.0001 24.9815L14.6361 27.3968L3.4003 38.9354V3.63822H30.6002V38.9354Z" fill="black"/>
</svg>
