<svg width="40" height="40" viewBox="0 0 34 33" fill="none" xmlns="http://www.w3.org/2000/svg">
<g clip-path="url(#clip0_117_64)">
<path d="M17 0C13.6377 0 10.3509 0.967708 7.55531 2.78075C4.75968 4.59379 2.58075 7.17074 1.29406 10.1857C0.00736586 13.2007 -0.329291 16.5183 0.326658 19.719C0.982607 22.9197 2.6017 25.8597 4.97919 28.1673C7.35668 30.4748 10.3858 32.0463 13.6835 32.683C16.9811 33.3196 20.3993 32.9929 23.5056 31.744C26.612 30.4952 29.267 28.3803 31.135 25.6669C33.003 22.9535 34 19.7634 34 16.5C33.9951 12.1254 32.2025 7.93129 29.0154 4.83796C25.8284 1.74464 21.5072 0.00473149 17 0ZM17 30.25C14.1981 30.25 11.4591 29.4436 9.12943 27.9327C6.79973 26.4218 4.98396 24.2744 3.91171 21.7619C2.83947 19.2494 2.55893 16.4847 3.10555 13.8175C3.65217 11.1503 5.00142 8.70025 6.98266 6.77728C8.96391 4.85431 11.4882 3.54475 14.2362 3.0142C16.9843 2.48366 19.8327 2.75595 22.4214 3.79666C25.01 4.83736 27.2225 6.59973 28.7792 8.86091C30.3358 11.1221 31.1667 13.7805 31.1667 16.5C31.1625 20.1455 29.6687 23.6405 27.0128 26.2183C24.3569 28.7961 20.756 30.246 17 30.25ZM24.0833 16.5C24.0833 16.8647 23.9341 17.2144 23.6684 17.4723C23.4027 17.7301 23.0424 17.875 22.6667 17.875H18.4167V22C18.4167 22.3647 18.2674 22.7144 18.0017 22.9723C17.7361 23.2301 17.3757 23.375 17 23.375C16.6243 23.375 16.264 23.2301 15.9983 22.9723C15.7326 22.7144 15.5833 22.3647 15.5833 22V17.875H11.3333C10.9576 17.875 10.5973 17.7301 10.3316 17.4723C10.0659 17.2144 9.91667 16.8647 9.91667 16.5C9.91667 16.1353 10.0659 15.7856 10.3316 15.5277C10.5973 15.2699 10.9576 15.125 11.3333 15.125H15.5833V11C15.5833 10.6353 15.7326 10.2856 15.9983 10.0277C16.264 9.76987 16.6243 9.625 17 9.625C17.3757 9.625 17.7361 9.76987 18.0017 10.0277C18.2674 10.2856 18.4167 10.6353 18.4167 11V15.125H22.6667C23.0424 15.125 23.4027 15.2699 23.6684 15.5277C23.9341 15.7856 24.0833 16.1353 24.0833 16.5Z" fill="#FA590F"/>
</g>
<defs>
<clipPath id="clip0_117_64">
<rect width="34" height="33" fill="white"/>
</clipPath>
</defs>
</svg>
