<svg width="40" height="40" viewBox="0 0 40 40" fill="none" xmlns="http://www.w3.org/2000/svg">
<g clip-path="url(#clip0_117_129)">
<path d="M35 0H5C3.67392 0 2.40215 0.526784 1.46447 1.46447C0.526784 2.40215 0 3.67392 0 5L0 40H40V5C40 3.67392 39.4732 2.40215 38.5355 1.46447C37.5979 0.526784 36.3261 0 35 0ZM5 3.33333H35C35.442 3.33333 35.866 3.50893 36.1785 3.82149C36.4911 4.13405 36.6667 4.55797 36.6667 5V34.31L18.535 16.1783C17.5974 15.241 16.3258 14.7144 15 14.7144C13.6742 14.7144 12.4026 15.241 11.465 16.1783L3.33333 24.31V5C3.33333 4.55797 3.50893 4.13405 3.82149 3.82149C4.13405 3.50893 4.55797 3.33333 5 3.33333ZM3.33333 29.0233L13.8217 18.535C14.1342 18.2225 14.5581 18.047 15 18.047C15.4419 18.047 15.8658 18.2225 16.1783 18.535L34.31 36.6667H3.33333V29.0233Z" fill="#737373"/>
<path d="M26.6667 16.6666C27.6557 16.6666 28.6224 16.3734 29.4446 15.824C30.2668 15.2746 30.9077 14.4937 31.2861 13.58C31.6646 12.6664 31.7636 11.6611 31.5707 10.6912C31.3777 9.72127 30.9015 8.83036 30.2023 8.13109C29.503 7.43183 28.6121 6.95563 27.6422 6.7627C26.6723 6.56978 25.667 6.66879 24.7533 7.04723C23.8397 7.42567 23.0588 8.06653 22.5094 8.88878C21.96 9.71102 21.6667 10.6777 21.6667 11.6666C21.6667 12.9927 22.1935 14.2645 23.1312 15.2022C24.0689 16.1398 25.3407 16.6666 26.6667 16.6666ZM26.6667 9.99996C26.9964 9.99996 27.3186 10.0977 27.5927 10.2808C27.8668 10.464 28.0804 10.7243 28.2065 11.0288C28.3327 11.3334 28.3657 11.6685 28.3014 11.9918C28.2371 12.3151 28.0783 12.6121 27.8453 12.8451C27.6122 13.0782 27.3152 13.237 26.9919 13.3013C26.6686 13.3656 26.3335 13.3326 26.0289 13.2064C25.7244 13.0803 25.4641 12.8667 25.281 12.5926C25.0978 12.3185 25.0001 11.9963 25.0001 11.6666C25.0001 11.2246 25.1757 10.8007 25.4882 10.4881C25.8008 10.1756 26.2247 9.99996 26.6667 9.99996Z" fill="#737373"/>
</g>
<defs>
<clipPath id="clip0_117_129">
<rect width="40" height="40" fill="white"/>
</clipPath>
</defs>
</svg>
